<?xml version="1.0" encoding="UTF-8"?>
<svg width="20px" height="20px" viewBox="0 0 20 20" version="1.1" xmlns="http://www.w3.org/2000/svg" xmlns:xlink="http://www.w3.org/1999/xlink">
    <!-- Generator: Sketch 47.1 (45422) - http://www.bohemiancoding.com/sketch -->
    <title>facebook</title>
    <desc>Created with Sketch.</desc>
    <defs></defs>
    <g id="Web" stroke="none" stroke-width="1" fill="none" fill-rule="evenodd" opacity="0.5">
        <g id="main-v3" transform="translate(-260.000000, -5240.000000)" fill-rule="nonzero" fill="#000000">
            <g id="Group-24" transform="translate(0.000000, 5192.000000)">
                <g id="facebook" transform="translate(260.000000, 48.000000)">
                    <path d="M18,0 L2,0 C0.9,0 0,0.9 0,2 L0,18 C0,19.1 0.9,20 2,20 L18,20 C19.1,20 20,19.1 20,18 L20,2 C20,0.9 19.1,0 18,0 Z M16.4,5.4 L15,5.4 C14.1,5.4 14,5.7 14,6.4 L14,7.7 L16.1,7.7 L16,10 L14.1,10 L14.1,17 L10.9,17 L10.9,10 L9.7,10 L9.7,7.6 L10.9,7.6 L10.9,6.1 C10.9,4.1 11.7,3 14,3 L16.4,3 L16.4,5.4 L16.4,5.4 Z" id="Shape"></path>
                </g>
            </g>
        </g>
    </g>
</svg>