<?xml version="1.0" encoding="UTF-8"?>
<svg width="20px" height="20px" viewBox="0 0 20 20" version="1.1" xmlns="http://www.w3.org/2000/svg" xmlns:xlink="http://www.w3.org/1999/xlink">
    <!-- Generator: Sketch 47.1 (45422) - http://www.bohemiancoding.com/sketch -->
    <title>linkedin</title>
    <desc>Created with Sketch.</desc>
    <defs></defs>
    <g id="Web" stroke="none" stroke-width="1" fill="none" fill-rule="evenodd" opacity="0.5">
        <g id="main-v3" transform="translate(-336.000000, -5240.000000)" fill-rule="nonzero" fill="#000000">
            <g id="Group-24" transform="translate(0.000000, 5192.000000)">
                <g id="linkedin" transform="translate(336.000000, 48.000000)">
                    <path d="M18,0 L2,0 C0.9,0 0,0.9 0,2 L0,18 C0,19.1 0.9,20 2,20 L18,20 C19.1,20 20,19.1 20,18 L20,2 C20,0.9 19.1,0 18,0 Z M6.1,16 L3,16 L3,7.4 L6.1,7.4 L6.1,16 Z M4.5,6.4 L4.5,6.4 C3.6,6.4 3,5.8 3,5 C3,4.2 3.6,3.6 4.6,3.6 C5.5,3.6 6.1,4.2 6.1,5 C6.1,5.8 5.5,6.4 4.5,6.4 Z M17,16 L13.9,16 L13.9,11.3 C13.9,10 13.1,9.7 12.8,9.7 C12.5,9.7 11.5,9.9 11.5,11.3 C11.5,11.5 11.5,16 11.5,16 L8.4,16 L8.4,7.4 L11.5,7.4 L11.5,8.6 C11.9,7.9 12.7,7.4 14.2,7.4 C15.7,7.4 16.9,8.6 16.9,11.3 L16.9,16 L17,16 Z" id="Shape"></path>
                </g>
            </g>
        </g>
    </g>
</svg>