<?xml version="1.0" encoding="UTF-8"?>
<svg width="228px" height="80px" viewBox="0 0 228 80" version="1.1" xmlns="http://www.w3.org/2000/svg" xmlns:xlink="http://www.w3.org/1999/xlink">
    <!-- Generator: Sketch 47.1 (45422) - http://www.bohemiancoding.com/sketch -->
    <title>logo_font</title>
    <desc>Created with Sketch.</desc>
    <defs>
        <filter x="-23.6%" y="-98.5%" width="147.2%" height="357.6%" filterUnits="objectBoundingBox" id="filter-1">
            <feOffset dx="0" dy="10" in="SourceAlpha" result="shadowOffsetOuter1"></feOffset>
            <feGaussianBlur stdDeviation="12.5" in="shadowOffsetOuter1" result="shadowBlurOuter1"></feGaussianBlur>
            <feColorMatrix values="0 0 0 0 0   0 0 0 0 0   0 0 0 0 0  0 0 0 0.05 0" type="matrix" in="shadowBlurOuter1" result="shadowMatrixOuter1"></feColorMatrix>
            <feMerge>
                <feMergeNode in="shadowMatrixOuter1"></feMergeNode>
                <feMergeNode in="SourceGraphic"></feMergeNode>
            </feMerge>
        </filter>
    </defs>
    <g id="main" stroke="none" stroke-width="1" fill="none" fill-rule="evenodd">
        <g transform="translate(-53.000000, -3894.000000)" id="logo_font" fill-rule="nonzero" fill="#00F7D8">
            <g filter="url(#filter-1)" transform="translate(77.000000, 3907.000000)">
                <path d="M147.314501,32.173913 L147.496228,32.173913 C149.661138,32.1505783 151.713678,31.2063222 153.140171,29.5774584 C153.406938,29.2807642 153.658229,28.9705086 153.893043,28.6479277 C154.490149,30.9328077 155.403979,32.1998776 157.698941,32.1531414 C159.80179,32.0960194 161.780025,30.688741 161.738488,28.518105 C161.738488,28.518105 161.665797,27.998814 160.653314,28.2428808 C159.640831,28.4869475 159.189108,27.7235898 159.064494,26.5084491 C159.008387,25.925109 158.982392,25.3392635 158.986611,24.7532458 C158.986611,18.7710144 158.986611,12.787052 158.986611,6.80135863 L158.986611,0.569867573 L158.685462,0.450430662 C157.299555,-0.112025988 155.755981,-0.148958508 154.344766,0.346572477 L153.633432,0.595832119 L153.633432,12.7732042 C152.351486,11.1499321 150.455253,10.1293263 148.394482,9.95345452 C146.140535,9.83263787 143.948082,10.7123957 142.40266,12.3577715 C138.394267,16.3926619 137.994466,24.9401905 141.613443,29.2918484 C142.999295,31.0421548 145.083527,32.0957999 147.314501,32.173913 Z M146.30721,15.2502219 C146.982934,14.4136638 147.994354,13.9192954 149.069471,13.9000655 C150.159344,13.9552571 151.170506,14.4846221 151.836924,15.3488872 C154.344766,18.3192313 154.323998,23.7146639 151.790194,26.6694293 C151.10636,27.6241064 149.98994,28.1728516 148.816462,28.1310853 C147.642983,28.0893189 146.56839,27.4625914 145.954139,26.4617129 C144.708006,24.7792103 144.500317,22.7695545 144.469164,21.0299299 C144.50551,18.4334753 145.071462,16.6471145 146.317594,15.2502219 L146.30721,15.2502219 Z" id="_Составной_контур_"></path>
                <path d="M178.203531,26.4943099 C178.203531,26.4943099 174.014967,29.3603879 169.450702,26.8848988 C168.232211,26.2251203 167.567118,24.8422245 167.23711,23.374877 C171.298747,23.7760224 173.659574,23.7232401 176.731187,21.9075296 C178.846073,20.774568 180.122742,18.4549685 179.990651,15.9853574 C179.969218,13.5334848 178.48271,11.3543279 176.264099,10.5223912 C172.298926,8.83863636 168.541911,9.38229387 165.409373,12.1058597 C162.642383,14.5021753 161.459431,17.9119108 161.794516,22.5725863 C162.20068,28.25196 166.252163,32.1736836 171.679526,32.1736836 L171.902916,32.1736836 C175.109656,32.1979113 178.043714,30.301987 179.44233,27.3018789 C180.163271,26.1301122 179.366175,25.7131322 178.203531,26.4943099 Z M168.744993,14.5813487 C169.692266,13.3475233 171.273904,12.8498198 172.720321,13.3304086 C173.77737,13.5731629 174.59157,14.4508222 174.786679,15.557821 C174.978721,16.383744 174.817651,17.2556551 174.344975,17.9488584 C173.666633,18.8968025 172.633319,19.5010735 171.501829,19.6115003 C170.420418,19.7540124 167.988513,19.9123593 166.968027,19.6484479 C166.975948,17.7960535 167.604267,16.0043759 168.744993,14.5813487 Z" id="_Составной_контур_2"></path>
                <path d="M22.4489611,29.2867137 C23.6715147,28.3429639 24.3768898,26.8615 24.3469074,25.300552 L24.2907853,18.0341115 C24.2907853,18.0341115 23.2703841,18.0341115 21.4183559,18.0341115 C20.0970821,18.1132681 19.0621595,19.2205607 19.051025,20.566985 C19.1020451,22.4770208 19.0969431,23.2919002 19.051025,25.0047041 C19.0386,25.3417202 18.906241,25.6626665 18.6785786,25.9078189 C15.3813272,28.3854986 10.7524237,27.7914443 8.16334402,24.558337 C6.01029744,21.8282315 5.29601659,18.4960495 5.90315531,14.0635207 C6.35213185,10.8040031 7.58681733,8.45279055 9.67863983,6.87493489 C11.5510761,5.46316929 13.6428986,5.31784048 15.8979853,6.35590342 C17.4285871,7.09811842 18.183684,8.53064527 18.2245001,10.8662869 C18.1731659,11.5615531 18.4142292,12.2463269 18.8877609,12.7503711 C19.4182564,13.1699103 20.0984863,13.341497 20.7601971,13.2226898 C22.4614653,13.1579579 23.7993428,11.7207979 23.7703807,9.9891237 C23.9030329,7.33168258 22.7856935,5.19846324 20.4438727,3.63617852 C15.4490087,0.303996492 7.68885745,1.49257856 3.81133281,6.17424241 C0.857271275,9.78670143 -0.392720221,14.2348011 0.107276378,19.4095449 C0.438906775,22.8403429 1.60216417,25.679445 3.56643652,27.8541869 C6.1792958,30.6611573 9.82793472,32.2271871 13.6275926,32.1725287 C16.7931443,32.1779155 19.879834,31.1681385 22.4489611,29.2867137 Z" id="_Контур_2"></path>
                <path d="M99.0908196,27.0985185 C99.0856331,27.8795628 99.1737693,28.6582222 99.3531778,29.4163847 C99.802214,31.1957034 101.053461,32.1724807 102.884923,32.1724807 L102.960604,32.1724807 C104.770608,32.2223205 106.37716,30.9668565 106.845524,29.1365512 L106.956522,28.714161 L106.562984,28.5610446 C104.242123,27.6476258 104.242123,27.6476258 104.242123,24.9760078 C104.242123,24.0537892 104.242123,23.1315707 104.242123,22.2093521 C104.242123,20.1554798 104.242123,18.1016075 104.242123,16.0477352 C104.191669,12.3518211 102.466159,10.0867537 99.3834499,9.63268423 C96.4823731,9.19973429 93.5762509,10.8734554 91.8154234,13.9938629 L91.7649699,14.0889007 C91.220072,10.7889774 90.3623624,9.3370111 87.8245508,9.59572509 C85.6752313,9.79636043 84.247397,11.1796883 84.3533493,12.9220478 L84.3533493,13.2863594 L84.6913878,13.3655575 C86.6086212,13.8037873 86.7650271,14.0202623 86.7650271,16.2061315 L86.7650271,20.2505176 C86.7650271,23.5398812 86.7650271,26.8292448 86.7650271,30.1186084 C86.7650271,30.5832376 87.1484738,31.6708923 87.7740973,31.7342508 C88.6855271,31.8074544 89.6000927,31.8286053 90.5137229,31.7976094 L91.4874756,31.7976094 L91.9466026,31.7976094 L91.9466026,31.3171405 C91.9466026,30.2928443 91.9466026,29.3002274 91.9466026,28.3340098 C91.9466026,26.2220589 91.9112851,24.1998659 91.9869654,22.1987923 C92.1030084,18.9939068 93.0717158,16.5176443 94.943541,14.6221683 C95.5936854,13.8375347 96.6361137,13.5485865 97.5721689,13.8935453 C98.3996065,14.205058 98.8435974,14.9495207 99.0504567,16.3064492 C99.0961049,16.6863663 99.1112939,17.0696146 99.0958649,17.4521826 L99.0958649,20.7996248 C99.0756835,22.8851764 99.0706382,24.9918475 99.0908196,27.0985185 Z" id="_Контур_3"></path>
                <path d="M120.454595,27.2728427 C119.247411,28.0344713 117.764058,28.2493602 116.38377,27.8625711 C114.589495,27.4406103 114.019061,26.7390369 114.019061,24.9698518 C114.039401,24.3890722 113.794068,23.8297415 113.350097,23.4446922 C112.445781,22.8670789 111.293951,22.8126598 110.337168,23.302344 C109.337705,23.8399863 108.711393,24.8639748 108.698467,25.981541 C108.646609,27.4609457 109.310387,28.6149831 110.772772,29.6063368 C112.468517,30.7400388 114.952499,31.3043478 117.446851,31.3043478 C120.039734,31.3043478 122.668916,30.6892001 124.416519,29.4690725 C126.098794,28.3799798 127.062838,26.4955875 126.947172,24.5224716 C126.737397,22.5709562 125.467922,20.8830629 123.628283,20.1096766 C122.800827,19.744677 121.946148,19.4421549 121.071701,19.2047486 C120.553124,19.0573166 120.08122,18.9098845 119.593758,18.737033 L118.520305,18.3709948 C117.447968,18.0437769 116.406854,17.6253079 115.408846,17.1203639 C114.844384,16.8342657 114.43124,16.3256707 114.273164,15.722301 C114.143449,15.163297 114.264274,14.5765972 114.605052,14.1107157 C115.414032,12.966846 117.229049,12.4889627 118.826265,13.0024331 C120.200492,13.4396455 120.625725,14.1056318 120.646468,15.8544815 C120.622279,16.3818688 120.808244,16.8978081 121.165045,17.2932153 C121.873328,17.8338879 122.805005,18.0044341 123.664583,17.7507632 C124.572285,17.5163433 125.307189,16.8641349 125.635174,16.0019136 C126.219378,14.2338377 125.540733,12.3000858 123.970543,11.2586673 C121.818451,9.73350777 119.355213,9.55557249 117.452037,9.57590795 C115.288332,9.47468216 113.153418,10.0946868 111.395064,11.3349253 C109.818046,12.3801448 108.893369,14.1414144 108.942198,16.0069974 C109.048967,17.8386237 110.100666,19.4905767 111.732139,20.3892892 C112.649351,20.902192 113.617092,21.3229015 114.62061,21.6450039 C115.346617,21.8941133 116.082995,22.1178034 116.819374,22.3364096 C117.99823,22.6650372 119.156608,23.0605508 120.28865,23.5209502 C121.043897,23.7838599 121.584858,24.4398988 121.688807,25.2189612 C121.695463,26.0743935 121.221036,26.863899 120.454595,27.2728427 L120.454595,27.2728427 Z" id="_Контур_4"></path>
                <path d="M39.0362044,19.1985526 C39.3207713,19.5574274 39.7450155,19.7739622 40.1993565,19.792227 C41.419884,20.0102938 42.6443962,19.4299745 43.2602831,18.3415966 C43.8272609,17.3307314 44.1848346,16.2136 44.3112012,15.058319 C44.4903081,13.5631856 44.0065843,12.0644683 42.9899012,10.9645469 C41.8742426,9.90931634 40.3521415,9.41166675 38.8372442,9.60683942 C36.1487303,9.82365963 34.7560087,11.7647168 33.7356998,13.6335005 C33.6693798,13.7573978 33.6030597,13.881295 33.5418411,14.0051923 C33.1643269,10.6651286 32.3021659,9.44164307 29.6595659,9.58618988 C27.5271204,9.6894376 26.0323679,11.0368203 26.0884849,12.7920316 L26.0884849,13.158561 L26.445593,13.2308344 C28.3229613,13.612851 28.5372262,13.8864574 28.5372262,15.873976 L28.5372262,17.5311019 C28.5372262,21.4854896 28.5372262,25.5792617 28.4862107,29.6007604 C28.4862107,30.7003487 28.9963651,31.2733735 29.9707601,31.3043478 C30.4043914,31.3043478 30.8329211,31.3043478 31.2716539,31.3043478 L33.8224261,31.3043478 L33.8224261,30.0034266 C33.8224261,29.554299 33.8224261,29.2032567 33.8224261,28.8470521 C33.8224261,28.0107456 33.8581369,27.174439 33.8734415,26.3381325 C33.9040508,24.3506139 33.9346601,22.3011466 34.1336203,20.3084656 C34.3784944,17.825358 34.9294612,15.378387 36.7405094,14.629841 C38.2709727,13.9897051 39.1841492,14.7950374 39.2147584,15.7552412 C39.2568066,16.4851434 39.1739644,17.216911 38.9698843,17.9182809 C38.7989412,18.3331259 38.8233367,18.8040667 39.0362044,19.1985526 L39.0362044,19.1985526 Z" id="_Контур_5"></path>
                <path d="M80.2094483,21.9076548 C82.3243338,20.7746817 83.6010024,18.4550587 83.4689123,15.9854226 C83.4474788,13.5335251 81.9609709,11.354346 79.74236,10.5224009 C75.7771865,8.83862898 72.025249,9.38229201 68.8876341,12.1058854 C66.1206436,14.5022254 64.9376918,17.9119955 65.2727768,22.5727184 C65.6789406,28.2521496 69.7304239,32.173913 75.1577868,32.173913 L75.3811769,32.173913 C80.3769909,31.9575035 82.9205913,27.3020589 82.9205913,27.3020589 C83.6466089,26.1408369 82.8444356,25.7185743 81.6817919,26.5050383 C81.6817919,26.5050383 77.4932283,29.3711454 72.9289633,26.8956312 C71.7104721,26.235846 71.045379,24.8529361 70.7153709,23.3855738 C74.7770083,23.7761666 77.137835,23.7233838 80.2094483,21.9076548 Z M70.4462875,19.6432719 C70.4542092,17.7908588 71.0825274,15.999163 72.2232538,14.5761214 C73.170527,13.3422834 74.7521648,12.8445749 76.1985814,13.3251686 C77.2556312,13.5679253 78.0698308,14.4455935 78.2649394,15.5526035 C78.4569823,16.3785349 78.2959117,17.2504549 77.8232364,17.9436652 C77.1437419,18.8929154 76.1083279,19.4973414 74.9750131,19.606324 C73.8885251,19.7488376 71.4616968,19.907186 70.4412104,19.6432719 L70.4462875,19.6432719 Z" id="_Составной_контур_3"></path>
                <path d="M60.2094483,21.9076548 C62.3243338,20.7746817 63.6010024,18.4550587 63.4689123,15.9854226 C63.4474788,13.5335251 61.9609709,11.354346 59.74236,10.5224009 C55.7771865,8.83862898 52.025249,9.38229201 48.8876341,12.1058854 C46.1206436,14.5022254 44.9376918,17.9119955 45.2727768,22.5727184 C45.6789406,28.2521496 49.7304239,32.173913 55.1577868,32.173913 L55.3811769,32.173913 C60.3769909,31.9575035 62.9205913,27.3020589 62.9205913,27.3020589 C63.6466089,26.1408369 62.8444356,25.7185743 61.6817919,26.5050383 C61.6817919,26.5050383 57.4932283,29.3711454 52.9289633,26.8956312 C51.7104721,26.235846 51.045379,24.8529361 50.7153709,23.3855738 C54.7820854,23.7761666 57.1429121,23.7181055 60.2094483,21.9076548 Z M50.4462875,19.6432719 C50.4542092,17.7908588 51.0825274,15.999163 52.2232538,14.5761214 C53.170527,13.3422834 54.7521648,12.8445749 56.1985814,13.3251686 C57.2556312,13.5679253 58.0698308,14.4455935 58.2649394,15.5526035 C58.4569823,16.3785349 58.2959117,17.2504549 57.8232364,17.9436652 C57.1437419,18.8929154 56.1083279,19.4973414 54.9750131,19.606324 C53.8936022,19.7488376 51.4616968,19.9177426 50.4462875,19.6432719 L50.4462875,19.6432719 Z" id="_Составной_контур_4"></path>
                <path d="M129.567739,26.8833015 C129.572349,27.6030611 129.638172,28.3209946 129.764443,29.0287477 C129.985874,30.8777884 131.535823,32.242484 133.33032,32.168425 L133.436237,32.168425 C135.310937,32.2705767 136.976316,30.9363492 137.355172,29.0287477 C137.355172,29.0287477 137.662836,28.0606805 136.482616,28.3694154 C135.302397,28.6781504 134.919077,27.7048504 134.752636,26.3495563 C134.709287,25.9132861 134.694123,25.4744956 134.707243,25.0361246 L134.707243,24.7326225 C134.707243,21.9383096 134.707243,16.3182872 134.707243,12.173913 C133.043523,12.7052682 131.308018,12.9544162 129.567739,12.9117372 C129.567739,16.0514146 129.567739,19.5102925 129.567739,21.2842102 C129.564377,23.1470854 129.564377,25.0134492 129.567739,26.8833015 Z" id="_Контур_33"></path>
                <path d="M140.468266,1.74479172 C139.320054,1.78166098 136.30161,2.05027982 133.950032,3.71466323 C131.362794,5.5317907 130.605676,8.84475642 130.440214,9.98243622 C130.422898,10.0839014 130.447416,10.1883178 130.507662,10.2696864 C130.567909,10.351055 130.658216,10.4017199 130.756097,10.4090661 C132.987285,10.5743543 135.205818,9.93927483 137.0487,8.60773979 C139.284956,6.86435083 140.473281,3.46711254 140.849333,2.21882498 C140.890675,2.09842854 140.867715,1.9640078 140.789105,1.86621988 C140.710496,1.76843196 140.588185,1.7221409 140.468266,1.74479172 Z" id="_Контур_51"></path>
            </g>
        </g>
    </g>
</svg>
