<?xml version="1.0" encoding="UTF-8"?>
<svg width="739px" height="564px" viewBox="0 0 739 564" version="1.1" xmlns="http://www.w3.org/2000/svg" xmlns:xlink="http://www.w3.org/1999/xlink">
    <!-- Generator: Sketch 47.1 (45422) - http://www.bohemiancoding.com/sketch -->
    <title>Group 2</title>
    <desc>Created with Sketch.</desc>
    <defs>
        <filter x="-6.2%" y="-26.4%" width="112.3%" height="169.1%" filterUnits="objectBoundingBox" id="filter-1">
            <feOffset dx="0" dy="10" in="SourceAlpha" result="shadowOffsetOuter1"></feOffset>
            <feGaussianBlur stdDeviation="12.5" in="shadowOffsetOuter1" result="shadowBlurOuter1"></feGaussianBlur>
            <feColorMatrix values="0 0 0 0 0   0 0 0 0 0   0 0 0 0 0  0 0 0 0.05 0" type="matrix" in="shadowBlurOuter1" result="shadowMatrixOuter1"></feColorMatrix>
            <feMerge>
                <feMergeNode in="shadowMatrixOuter1"></feMergeNode>
                <feMergeNode in="SourceGraphic"></feMergeNode>
            </feMerge>
        </filter>
    </defs>
    <g id="main" stroke="none" stroke-width="1" fill="none" fill-rule="evenodd">
        <g id="main-copy" transform="translate(-298.000000, -78.000000)">
            <g id="Group-2" transform="translate(323.000000, 78.000000)">
                <g id="logo_greenside" transform="translate(2.000000, 0.000000)" fill-rule="nonzero" fill="#F7F7F7">
                    <g id="bottom" transform="translate(22.000000, 330.000000)">
                        <path d="M310.094205,86.4689366 C310.370859,83.1548146 310.687036,79.8406926 311.200822,76.5464157 C311.497237,74.0657854 311.971502,71.6248453 312.445766,69.1640601 C312.840987,67.1795559 314.678761,62 312.663137,62 C310.647514,62 308.928305,65.4927274 308.473802,67.219246 C307.722883,70.0173969 306.971964,72.8155478 306.4977,75.6732338 C305.72702,79.0270459 305.173712,82.420548 304.659925,85.8140502 C304.36351,87.5008787 304.205422,89.2273974 304.007812,90.934071 C303.810202,92.6407446 303.573069,94.3474182 303.494025,96.0739368 C303.217371,99.507129 303.039522,102.960166 303,106.413204 C303,108.139722 303,109.866241 303,111.612605 C303,113.358968 303.138327,115.581613 303.217371,117.566117 C303.362285,120.860394 303.665288,124.167901 304.126378,127.488638 C304.36351,129.175467 304.580881,130.88214 304.916819,132.568969 C305.252756,134.255797 305.549171,135.982316 306.043197,137.92713 L309.619941,151.97742 C309.773918,152.596753 310.338955,153.023018 310.97415,152.999037 C311.609344,152.975056 312.140917,152.50739 312.248156,151.878194 L314.817088,137.133328 L314.817088,137.133328 C315.291353,134.613008 315.568007,132.092688 316.22012,129.592212 C316.872234,127.091737 317.465065,124.571417 318.196222,122.051097 C318.92738,119.530776 319.717821,117.050146 320.666349,114.589361 C321.614878,112.128576 322.484363,109.6281 323.432892,107.167315 C325.408993,102.26559 327.701271,97.4432447 329.993549,92.6208995 L336.929666,78.0943289 L336.929666,78.0943289 C337.153451,77.2738361 336.831596,76.4013718 336.12952,75.9253431 C335.427444,75.4493144 334.501341,75.4756258 333.827187,75.9907545 C331.958018,78.0363577 330.20948,80.1899082 328.590517,82.4403931 C326.930592,84.6498077 325.369471,86.9253725 323.907156,89.2670875 C321.021527,93.9877482 318.383138,98.8564021 316.002749,103.853193 C314.836849,106.373513 313.631427,108.893834 312.603854,111.493534 C311.971502,113.001757 311.398432,114.549671 310.864885,116.117429 C310.687036,114.569516 310.469664,113.001757 310.370859,111.433999 C310.272054,109.866241 310.054683,108.139722 310.015161,106.492584 C309.837312,103.198307 309.778029,99.8841848 309.817551,96.5700628 C309.817551,94.9030793 309.916356,93.2559409 309.975639,91.6088024 C310.034922,89.9616639 309.916356,88.116075 310.094205,86.4689366 Z" id="_Контур_"></path>
                        <path d="M55.2712479,61.2593867 C54.9835031,61.6760021 54.920473,62.2045621 55.1023901,62.6754 C55.2843073,63.146238 55.6882816,63.5001097 56.1846382,63.6234232 C61.7046926,65.0105851 77.1330462,68.1951962 88.9674074,63.6234232 C98.3302671,59.6041654 106.030495,52.5785998 110.809349,43.695182 C111.023258,43.3052646 111.058916,42.8443368 110.907455,42.427054 C110.755993,42.0097712 110.431647,41.675352 110.015097,41.506983 C105.36872,39.6509213 91.3104521,35.0400733 78.2449996,40.8036333 C66.4503509,46.0592185 58.1901256,56.9611386 55.2712479,61.2593867 Z" id="_Контур_10-Copy"></path>
                        <path d="M195.839688,71.5368672 C196.386558,71.2438918 196.784521,70.7308122 196.934718,70.1250841 C197.084915,69.519356 196.973252,68.8778225 196.627467,68.3598488 C192.688575,62.5617901 180.30076,46.1802887 160.921412,42.824563 C143.196399,39.7468264 125.116885,46.0810069 118.38138,48.7814726 C117.718467,49.0413311 117.224296,49.6127096 117.0592,50.3102262 C116.894105,51.0077428 117.079118,51.7425316 117.554213,52.2761929 C122.773245,58.2331025 137.937978,73.9792002 155.131241,77.8114787 C168.149279,80.7700771 183.609429,78.0298987 195.839688,71.5368672 Z" id="_Контур_12-Copy"></path>
                        <path d="M377.210129,67.8692705 C389.509651,63.6612885 401.271816,54.9884993 407.680305,44.3401316 C416.138714,30.2937691 415.26302,10.0440903 414.60625,2.85298491 C414.564693,2.18951033 414.189775,1.59126435 413.608577,1.26102475 C413.027378,0.930785148 412.317831,0.912833591 411.720439,1.21325483 C405.510972,4.01857617 389.629064,12.1974708 380.275059,26.1648102 C370.085163,41.3965198 373.13019,60.2040263 374.563144,66.4863656 C374.697069,67.0391426 375.064414,67.5078506 375.571251,67.7726452 C376.078087,68.0374397 376.675279,68.0726491 377.210129,67.8692705 L377.210129,67.8692705 Z" id="_Контур_14-Copy"></path>
                        <path d="M631.958775,85.9151867 C625.85397,82.1142993 609.343247,72.9603295 591.544172,73.0001294 C572.139614,73.0001294 557.293838,86.9300834 552.596309,91.8254672 C552.172106,92.2724717 551.95774,92.8797902 552.00693,93.4952265 C552.05612,94.1106628 552.364206,94.6758887 552.853979,95.0492565 C563.755417,103.387329 578.303881,108.601112 591.445068,107.944414 C608.788265,107.068817 626.151282,94.3328589 632.196624,89.4374751 C632.744233,88.997623 633.042523,88.3163655 632.995087,87.6138868 C632.947651,86.9114081 632.560504,86.2768064 631.958775,85.9151867 Z" id="_Контур_19"></path>
                        <path d="M435.021589,84.3687365 C434.74861,84.1067961 434.376131,83.974082 433.998491,84.0042067 C433.62085,84.0343314 433.274268,84.2244056 433.046525,84.5262891 C425.72539,93.7909857 421.826671,105.286735 422.005916,117.080593 C422.75644,132.067783 434.172311,147.054973 437.80643,151.525528 C438.073041,151.84897 438.479575,152.024553 438.898558,151.997222 C439.317541,151.96989 439.69767,151.74299 439.919748,151.387669 C442.803342,146.877727 451.03936,132.579829 450.999858,117.139675 C450.960357,100.439101 438.655707,87.8151994 435.021589,84.3687365 Z" id="_Контур_20"></path>
                        <path d="M554.910759,115.492256 C542.040359,104.630022 524.323698,105.757795 519.159649,106.351359 C518.792507,106.398776 518.46179,106.596404 518.246964,106.896757 C518.032138,107.197109 517.952625,107.573033 518.02753,107.934199 C520.377002,119.582529 526.691177,130.06576 535.903085,137.612434 C547.820122,146.812687 566.847657,147.881103 572.667144,147.999816 C573.089157,148.006863 573.48876,147.81106 573.740742,147.473759 C573.992723,147.136458 574.066254,146.698928 573.938294,146.298264 C572.349356,141.114466 566.76821,125.523499 554.910759,115.492256 Z" id="_Контур_21"></path>
                        <path d="M466.003408,93.0179538 C465.55115,92.9504908 465.091194,93.0749489 464.735574,93.3610131 C464.379954,93.6470772 464.161313,94.0684897 464.132906,94.522604 C463.197655,108.836579 467.217244,124.576012 475.594702,135.603514 C486.877407,150.452036 509.084637,157.915893 516.009472,159.95509 C516.49747,160.072454 517.012568,159.956875 517.402695,159.642474 C517.792822,159.328074 518.013422,158.850761 517.999367,158.35145 C517.800377,151.71911 516.268158,131.32714 505.42323,115.508515 C493.742545,98.4426137 472.231779,94.0276532 466.003408,93.0179538 Z" id="_Контур_22"></path>
                        <path d="M80.4036909,90.8254074 C75.6863415,85.8504054 60.8603864,72.0398 41.4558276,72 C23.6171115,72 7.12620962,81.1142036 1.04122538,84.9151051 C0.439495695,85.2767261 0.0523493173,85.9113302 0.00491304215,86.6138114 C-0.042523233,87.3162927 0.255767124,87.9975528 0.803375834,88.4374065 C6.84871848,93.3328084 24.2117354,106.068813 41.5549315,106.944414 C54.7159398,107.601114 69.3040453,102.387312 80.1460205,94.0492087 C80.6357939,93.6758394 80.9438795,93.1106114 80.99307,92.4951729 C81.0422605,91.8797343 80.8278937,91.2724135 80.4036909,90.8254074 L80.4036909,90.8254074 Z" id="_Контур_23"></path>
                        <path d="M199.050707,83.5261368 C198.822981,83.2243407 198.476426,83.0343215 198.098814,83.0042055 C197.721203,82.9740895 197.348752,83.1067652 197.075794,83.3686298 C193.343208,86.8140948 181.039498,99.434341 181,116.149768 C181,131.585452 189.215639,145.859521 192.079263,150.387847 C192.301325,150.743065 192.681424,150.969899 193.100375,150.997223 C193.519326,151.024546 193.92583,150.849014 194.192421,150.525665 C197.865759,146.056405 209.280758,131.073554 209.991727,116.090703 C210.203603,104.305439 206.340222,92.8065733 199.050707,83.5261368 Z" id="_Контур_24"></path>
                        <path d="M112.866992,105.354733 C107.801625,104.760652 90.0629106,103.612095 77.1114639,114.503581 C65.1929547,124.543551 59.6508479,140.247094 58.0617134,145.296783 C57.9337376,145.697796 58.0072776,146.135707 58.2592904,146.473301 C58.5113033,146.810895 58.9109559,147.006869 59.333021,146.999816 C65.1730905,146.881 84.103656,145.811654 96.101622,136.603397 C105.314668,129.050158 111.629624,118.557808 113.979386,106.899343 C114.042352,106.546803 113.959702,106.183858 113.750215,105.892976 C113.540729,105.602095 113.222196,105.407978 112.866992,105.354733 Z" id="_Контур_25"></path>
                        <path d="M167.08064,92.008126 C160.831836,92.9585708 139.339131,97.3543781 127.577845,114.501987 C116.73199,130.342734 115.19964,150.698094 115.000633,157.351208 C114.986577,157.850592 115.207195,158.327975 115.597356,158.642422 C115.987517,158.956869 116.502658,159.072465 116.990698,158.955083 C123.916125,156.97499 146.125253,149.450635 157.408923,134.599935 C165.787098,123.570815 169.787129,107.829072 168.871699,93.512997 C168.841582,93.0744317 168.634032,92.6667583 168.296482,92.3831447 C167.958933,92.0995311 167.520232,91.9642168 167.08064,92.008126 L167.08064,92.008126 Z" id="_Контур_26"></path>
                        <path d="M522.412196,25.9772603 C508.154055,19.6230977 492.779549,25.1062847 487.961551,27.1451593 C487.558585,27.3076545 487.242986,27.6356591 487.09352,28.0473132 C486.944053,28.4589673 486.974818,28.9154377 487.178137,29.3028033 C492.434114,39.2320935 500.883523,47.0526868 511.131029,51.4730902 C524.194463,56.5405843 541.155383,52.680579 546.874308,51.116782 C547.349018,50.991016 547.733494,50.6396595 547.904953,50.174918 C548.076412,49.7101766 548.013409,49.1901781 547.736063,48.7809839 C544.719918,44.2479521 535.573556,31.8365504 522.412196,25.9772603 Z" id="_Контур_29-Copy"></path>
                        <path d="M478.936246,19.6605482 C479.064047,19.2743854 478.997392,18.8506987 478.757089,18.5217596 C478.516786,18.1928204 478.132111,17.998702 477.723156,18.0000065 C472.075326,18.0000065 453.600559,18.7116673 439.063363,27.8841833 C423.392624,37.8672018 418.977771,56.9238946 418.023209,62.2020449 C417.954438,62.5607817 418.040064,62.9317489 418.25928,63.2248019 C418.478496,63.5178548 418.811234,63.7061662 419.176639,63.7439765 C431.924029,64.9696144 446.12315,61.7671412 456.185833,54.7296073 C469.828126,45.1419559 477.047007,25.4526758 478.936246,19.6605482 Z" id="_Контур_32-Copy"></path>
                        <path d="M553.544205,28.6411625 C552.875148,29.3055372 552.815535,30.3794769 553.40682,31.1162094 C563.377031,44.3297661 577.704303,54.9684757 591.442782,58.0622843 C610.068235,62.2538959 630.499317,51.2359453 636.308731,47.7828557 C636.711497,47.47222 636.962194,46.9993717 636.996069,46.4864485 C637.029943,45.9735254 636.843672,45.4708295 636.485369,45.1082083 C631.676901,39.7189933 615.445869,22.8527464 596.349382,17.4635315 C575.761289,11.6551553 558.176035,24.7489517 553.544205,28.6411625 Z" id="_Контур_34-Copy"></path>
                        <path d="M318.289681,72.9958489 C330.500197,71.5458977 341.827779,65.9126538 350.338728,57.0577524 C361.081205,45.1931645 364.212775,25.1815595 364.985758,19.3481371 C365.045316,18.9706913 364.91585,18.5880698 364.639179,18.3238678 C364.362509,18.0596659 363.973702,17.9473715 363.598353,18.0232581 C358.464956,19.150394 341.79628,23.5402915 330.221361,35.2071363 C317.695079,47.7835995 316.961736,66.62852 317.001377,71.7896158 C316.994585,72.1256097 317.13093,72.4487157 317.37655,72.6786878 C317.622169,72.9086599 317.954019,73.0239224 318.289681,72.9958489 L318.289681,72.9958489 Z" id="_Контур_37-Copy"></path>
                        <path d="M200.672344,43.9871822 C204.362017,56.185172 212.240176,66.7354471 222.954425,73.8269057 C223.253097,74.0084961 223.618169,74.049559 223.9506,73.9389543 C224.283031,73.8283496 224.548353,73.5775453 224.674586,73.254583 C227.014805,68.2812957 234.67552,49.5722627 228.874978,31.8105225 C223.43447,15.2921041 210.133227,3.56935556 205.932835,0.234095452 C205.613262,-0.0032422918 205.193597,-0.0647081243 204.81793,0.0708019287 C204.442263,0.206311982 204.161734,0.520350702 204.072661,0.905094527 C202.112478,6.72699826 196.111918,27.6661164 200.672344,43.9871822 Z" id="_Контур_45-Copy"></path>
                        <path d="M290.626123,71.9975939 C290.97968,72.0192319 291.326618,71.8942071 291.586181,71.6516215 C291.845743,71.409036 291.995286,71.0700527 292,70.7135774 C292,65.5182489 291.097166,46.6333286 277.790185,34.6228354 C265.444918,23.4815226 247.820037,19.9060304 242.461916,19.0170958 C242.071019,18.9517574 241.672409,19.0758926 241.386482,19.3520073 C241.100555,19.6281219 240.960838,20.0238396 241.009532,20.419637 C241.814231,26.3458672 245.307804,46.1987384 256.710985,57.5771004 C265.052381,65.9528391 278.182721,71.1679217 290.626123,71.9975939 Z" id="_Контур_49-Copy"></path>
                        <path d="M503.449489,92.5518482 C508.913327,94.0452705 514.460197,95.2174256 520.061524,96.0622746 C523.718546,96.6153354 527.406015,96.9446413 531.103293,97.0483495 C532.498759,97.1151343 533.896913,97.1019651 535.290869,97.0089065 C536.962183,96.7498021 538.14292,95.2368668 537.986022,93.5554801 C537.829123,91.8740934 536.388777,90.6049725 534.698288,90.6585845 C530.158907,90.688273 525.629415,90.2320728 521.187429,89.2978012 C515.856624,88.3075619 510.581894,87.0370444 505.385256,85.4915523 C499.301419,83.6771746 492.802775,81.547253 485.435011,78.450978 C477.448732,75.131012 469.245606,72.3570315 460.882384,70.1482278 C451.358355,67.5998568 441.547733,66.2744012 431.687868,66.2039285 C420.9674,66.4888051 410.384432,68.6862093 400.43907,72.6923009 C390.013505,76.8426394 380.719981,83.397971 373.31859,91.8221528 C369.669395,96.0871442 366.55814,100.783079 364.054565,105.804694 C361.451844,110.75873 359.461976,116.010301 358.12875,121.443841 C353.204153,141.71792 355.170629,163.051335 363.718769,182.087444 C367.44885,190.347516 372.573615,197.905771 378.869103,204.4319 C380.736935,206.359523 382.715553,208.176973 384.794918,209.875033 L382.819646,208.967844 L380.271546,207.745111 L377.881467,206.423771 C376.321003,205.536303 374.602516,204.708 373.160568,203.761369 L368.696454,200.960916 L364.52863,198.022413 C363.185446,197.036338 361.941025,196.050263 360.578087,194.985303 C358.156521,192.985242 355.84846,190.852013 353.664636,188.595538 C352.657248,187.491134 351.689364,186.38673 350.721481,185.282326 C349.832801,184.228237 349.008289,183.121844 348.252392,181.969115 L341.714242,171.516721 C341.121661,170.629254 338.731582,170.885633 338.810593,171.832265 L339.738971,182.915747 L339.738971,182.915747 L340.252541,185.814807 C340.450068,186.78116 340.529079,187.786956 340.82537,188.713867 C341.299923,190.656961 341.880196,192.572788 342.563609,194.452822 L343.630256,197.292718 L344.953688,200.112892 C345.37708,201.074675 345.858617,202.009882 346.395636,202.913344 L347.995606,205.674354 L349.812856,208.39592 C350.385685,209.303109 351.156041,210.190577 351.788128,211.078044 C352.420215,211.965511 353.190571,212.852979 353.960927,213.720725 C354.731283,214.58847 355.462133,215.456216 356.3115,216.304241 C357.837065,217.912218 359.445816,219.439433 361.131163,220.879628 L360.143527,220.583805 C357.832459,219.85411 355.541144,219.084972 353.289335,218.177783 C351.037525,217.270594 348.82522,216.205633 346.593163,215.357609 C344.361106,214.509584 342.20806,213.385459 340.074767,212.123283 C335.774807,209.892116 331.606708,207.416281 327.59105,204.708 C325.589441,203.393234 323.614169,201.986434 321.665235,200.4876 C319.689963,199.028209 317.833207,197.489933 316.134474,196.030542 L312.974039,193.308975 L310.781487,196.839123 C308.257675,200.452558 305.200932,203.664047 301.71499,206.364606 C298.098817,209.327469 294.334375,212.105198 290.436189,214.687078 C284.984439,218.394719 279.216646,221.629045 273.745143,225.455015 C274.199456,224.508383 274.673521,223.482865 275.088328,222.634841 C276.431513,219.558288 277.675934,216.462013 278.782086,213.365738 C280.988818,207.203251 282.822544,200.913899 284.273341,194.531708 L284.273341,194.531708 L286.248613,185.085111 C286.406635,184.394859 284.431363,183.980707 283.740018,184.552631 L274.100692,192.441229 C272.3427,193.880899 270.446439,195.340289 268.550178,196.779959 C266.653918,198.219628 264.599635,199.619854 262.624363,201.039802 C258.67382,203.840255 254.367728,206.561821 249.824603,209.086173 C247.572793,210.36807 245.162962,211.571081 242.674119,212.695207 L241.074149,213.365738 C244.130769,211.131543 247.016097,208.672673 249.706086,206.009619 C256.111311,199.677029 261.447706,192.351083 265.50826,184.315973 C270.032086,175.343362 273.156147,165.73327 274.772284,155.81841 C276.572749,145.163472 276.479139,134.275159 274.495746,123.652649 C272.444788,112.450449 267.699866,101.913068 260.668844,92.9462781 C253.460443,84.0955232 244.245275,77.0852178 233.785397,72.495086 C223.789596,68.117163 213.08168,65.5847345 202.181049,65.0206387 C192.107924,64.8271625 182.054862,65.9947385 172.295188,68.4916221 C163.719456,70.5957167 155.298237,73.2841392 147.090721,76.5379928 C135.450658,81.2090575 123.505562,85.0834304 111.338304,88.1342329 C106.9532,89.1794722 103.437217,89.8105601 101.126149,90.1063826 L98.4595322,90.4613695 L97.6101653,90.4613695 L97.491649,90.4613695 C96.1634487,90.4806495 95.0766774,91.522824 95.0038585,92.8470709 C94.9310397,94.1713178 95.8970076,95.3260136 97.215111,95.4903512 L98.3212631,95.6678447 C99.0126082,95.6678447 100.03975,95.8847812 101.363182,95.9636671 C105.11871,96.1505857 108.883117,96.0450851 112.62223,95.6481232 C125.746355,94.1127398 138.59901,90.7951749 150.823985,85.7873748 C158.593025,82.6893402 166.565436,80.1261234 174.685267,78.1157125 C183.52626,75.8287274 192.634224,74.7343155 201.766242,74.8616656 C211.41508,75.3571132 220.895947,77.5816288 229.755842,81.428924 C248.197132,89.2704853 261.52464,105.75569 265.310733,125.407862 C267.220159,134.939928 267.434119,144.733168 265.94282,154.339298 C264.598594,163.38189 261.880982,172.166919 257.883711,180.391395 C254.359758,187.749452 249.693227,194.505227 244.056809,200.408714 C239.319588,205.38982 233.827041,209.595892 227.780571,212.8727 C223.096303,215.373737 218.129503,217.306999 212.985785,218.631377 C211.082647,219.158367 209.150133,219.573234 207.198239,219.873832 C205.762645,220.16504 204.31184,220.375732 202.852642,220.504919 L199.198389,220.859906 L198.961356,220.859906 C197.395801,221.204869 196.327565,222.653303 196.462359,224.24833 C196.597152,225.843356 197.893365,227.092605 199.49468,227.170785 L203.445223,226.934127 C205.040106,226.84881 206.629217,226.677642 208.205628,226.421368 C224.666904,223.800923 240.673893,218.867648 255.750418,211.768296 C260.945382,209.303109 265.626776,206.660429 270.30817,203.879698 L272.540227,202.518914 C272.164926,205.792683 271.69086,209.04673 271.098279,212.379663 C270.505697,215.712596 269.834105,218.631377 269.123007,221.727652 C268.411909,224.823927 267.305757,227.861038 266.140347,230.977034 C264.974937,234.093031 267.602048,234.152195 268.609437,233.915537 C273.33054,232.61286 277.869526,230.724606 282.120295,228.294911 C286.367129,225.928331 290.416436,223.265929 294.465743,220.544362 C298.563527,217.815562 302.519211,214.879817 306.317373,211.748575 C309.299866,209.325527 312.044692,206.62466 314.514751,203.682483 C315.541892,204.471343 316.490023,205.240481 317.63568,205.989898 C319.7163,207.462436 321.829841,208.882384 323.976302,210.249741 C328.27526,212.96763 332.726945,215.436879 337.309386,217.645302 C341.878983,219.88516 346.605781,221.790028 351.452332,223.344815 C353.862163,224.173118 356.3115,224.86337 358.78059,225.474737 C361.249679,226.086103 363.758275,226.57914 366.247117,227.052456 C372.172932,228.196303 370.869253,225.218357 370.335929,224.843649 L370.335929,224.843649 C369.605079,224.311168 368.933486,223.739245 368.261894,223.167321 L368.103872,223.048992 C367.017473,222.122082 365.950826,221.076843 364.96319,220.189375 C363.375514,218.617809 361.884741,216.951572 360.499076,215.199837 C359.787978,214.351812 359.155891,213.503788 358.523805,212.636042 C357.891718,211.768296 357.299136,210.920272 356.765813,210.032805 C356.232489,209.145337 355.620155,208.297313 355.185595,207.390124 L353.783152,204.727722 L352.597989,202.025877 C352.195018,201.14265 351.851867,200.233418 351.570848,199.30431 L350.662223,196.582744 L350.148653,194.452822 C351.4655,195.544078 352.782348,196.615613 354.099196,197.667426 C355.541144,198.712665 356.923834,199.797348 358.405288,200.822866 L362.987919,203.859976 L367.886592,206.739315 C369.486562,207.725389 371.323565,208.553692 373.042052,209.480603 L375.64941,210.821664 L378.414791,212.064119 C380.291299,212.8727 382.069043,213.740446 384.004809,214.509584 L389.930625,216.738114 C391.905896,217.526973 393.979932,218.098897 396.014461,218.710263 C398.048991,219.32163 400.063768,220.090768 402.236567,220.682413 L408.675953,222.339019 C410.789494,222.930664 413.041304,223.344815 415.253608,223.798409 L421.910273,225.139471 C431.273061,226.677748 431.549599,222.989828 431.786632,221.806538 C432.054116,220.441706 431.174344,219.115351 429.81136,218.828592 L426.078097,218.098897 C424.634093,217.856489 423.203446,217.540533 421.791757,217.152265 C420.172034,216.817 418.315279,216.245076 416.201738,215.613988 C411.245414,214.100086 406.459474,212.077703 401.920524,209.57921 C396.085684,206.356274 390.760621,202.28904 386.11835,197.509654 C380.61486,191.820829 376.131578,185.229947 372.864277,178.024815 C365.224199,161.057644 363.432028,142.040718 367.768076,123.948471 C368.890824,119.264024 370.582324,114.733995 372.805019,110.458967 C373.867601,108.174046 375.123142,105.983619 376.558035,103.91143 C377.81743,101.925166 379.237798,100.045328 380.804869,98.2908038 C387.141295,90.865145 395.130282,85.0230183 404.132828,81.231709 C412.956572,77.538095 422.366063,75.4348222 431.924901,75.0194375 C441.016571,74.9807607 450.076413,76.0940558 458.88736,78.332649 C466.937356,80.3021773 474.854298,82.7788983 482.59062,85.7479318 C489.978136,88.5878273 497.227383,90.8952425 503.449489,92.5518482 Z" id="_Контур_50"></path>
                    </g>
                    <g id="mid" opacity="0.100000001" transform="translate(0.000000, 204.000000)">
                        <path d="M345.44218,29.3499672 C339.937836,32.8749959 326.516011,42.5391197 319.795127,56.5996277 C312.456002,71.9473653 317.641253,88.8199748 319.795127,94.6620169 C320.007302,95.2140978 320.446006,95.6504636 321.001624,95.862084 C321.557241,96.0737043 322.17729,96.0405899 322.706845,95.7710147 C333.496158,90.2062221 343.168647,80.6213124 347.675827,70.0264226 C353.559093,56.0253252 350.168737,37.6476472 348.553331,30.7362144 C348.467401,30.049375 348.026596,29.4569171 347.390679,29.1735692 C346.754762,28.8902212 346.016012,28.9571004 345.44218,29.3499672 Z" id="_Контур_6-Copy"></path>
                        <path d="M363.10446,139.372067 C363.407281,139.488269 363.743969,139.477112 364.038496,139.341116 C364.333023,139.20512 364.560549,138.955753 364.669696,138.649327 C368.457567,127.368294 368.598438,113.856194 364.247082,103.235054 C358.346143,88.8273841 342.00508,78.0962624 337.137196,75.2053013 C336.811109,75.0097261 336.41158,74.9822329 336.061955,75.1313097 C335.71233,75.2803865 335.454655,75.5881051 335.368479,75.9594651 C334.1789,81.0814939 330.954514,97.9559078 336.307621,113.054895 C342.161603,129.379398 358.549623,137.408099 363.10446,139.372067 Z" id="_Контур_7-Copy" transform="translate(350.413556, 107.244044) rotate(59.000000) translate(-350.413556, -107.244044) "></path>
                        <path d="M1.20853091,142.033912 C7.50946583,145.621958 26.806079,155.070477 46.4965006,149.030601 C64.5132364,143.489064 78.4146741,128.977414 83.4160411,123.11694 C83.9134776,122.559364 84.109445,121.790412 83.940557,121.058804 C83.7716689,120.327195 83.2593655,119.725807 82.569353,119.44916 C74.8507077,116.359454 53.3684578,108.88436 35.4698645,113.429217 C21.9622353,116.877728 8.86810492,126.744852 0.401223627,138.68507 C0.0332627092,139.227517 -0.0889732204,139.90298 0.0651364967,140.542253 C0.219246214,141.181525 0.635102303,141.724046 1.20853091,142.033912 Z" id="_Контур_11-Copy"></path>
                        <path d="M134.458382,95.2664825 C118.565791,93.5948913 102.871858,100.221556 97.0710625,103.067242 C96.5197155,103.354046 96.1340564,103.882707 96.0287621,104.496027 C95.9234678,105.109347 96.110664,105.736694 96.5346875,106.191525 C101.501122,111.126699 115.883917,124.101431 131.339461,126.509318 C143.060246,128.320209 156.549083,124.996926 167.09779,118.54936 C167.5555,118.250665 167.870226,117.776347 167.967946,117.237964 C168.065666,116.69958 167.937756,116.144645 167.614299,115.703675 C163.859674,110.828201 151.840903,97.0972729 134.458382,95.2664825 Z" id="_Контур_13-Copy"></path>
                        <path d="M245.931966,100.791518 C246.23772,100.992635 246.614557,101.051686 246.966528,100.953637 C247.3185,100.855587 247.611645,100.609898 247.771324,100.279125 C252.284868,90.2354764 253.217954,78.9306076 250.412955,68.2742363 C246.499427,54.6563929 233.036893,42.8910491 228.614607,39.2845869 C228.305217,39.0299863 227.893777,38.9393443 227.507099,39.0405987 C227.120422,39.1418531 226.804922,39.42285 226.657843,39.7969805 C225.033729,44.6055967 220.88539,59.14969 224.329294,73.2996344 C228.00801,88.6714404 241.705356,98.1704281 245.931966,100.791518 Z" id="_Контур_15-Copy"></path>
                        <path d="M285.130257,111.564957 C295.483201,101.662533 302.081014,88.5188184 303.811507,74.3494364 C305.542358,56.0379779 294.878726,35.395611 291.218076,28.9164757 C290.974421,28.4241605 290.498941,28.0854486 289.951178,28.0139911 C289.403415,27.9425337 288.855952,28.1477993 288.492484,28.5609134 C284.195199,33.5585391 272.079245,49.0650061 269.433232,67.7912873 C266.568376,88.0780919 278.704225,106.132755 282.603613,111.248902 C282.871952,111.656287 283.306922,111.926131 283.793335,111.986976 C284.279748,112.047821 284.768535,111.893528 285.130257,111.564957 L285.130257,111.564957 Z" id="_Контур_16-Copy"></path>
                        <path d="M594.340344,98.4087724 C597.395575,101.618543 606.365417,110.203712 617.744191,113.123443 C630.082621,116.294542 641.774752,110.010353 645.397942,107.76738 C645.699717,107.586155 645.910036,107.287631 645.977155,106.945257 C646.044274,106.602883 645.961961,106.248441 645.750469,105.969135 C640.22482,98.8145383 632.388886,93.7388239 623.541295,91.5831761 C612.358369,89.26286 599.158207,94.4835711 594.732041,96.4558397 C594.365665,96.6168767 594.101421,96.9436705 594.023519,97.3320764 C593.945617,97.7204824 594.063777,98.1220377 594.340344,98.4087724 L594.340344,98.4087724 Z" id="_Контур_28-Copy"></path>
                        <path d="M379.646723,109.824104 C391.076193,104.648095 401.598256,95.1427111 406.675875,84.2519266 C413.491082,69.7629501 410.537182,50.0594814 409.224338,43.4018641 C409.117609,42.8536964 408.752216,42.3904536 408.24295,42.1576652 C407.733684,41.9248769 407.143039,41.9511096 406.656568,42.2281223 C401.212125,45.3452726 386.442624,54.7736902 378.72001,69.3203918 C370.340973,85.0985601 375.283446,103.08952 377.194793,108.746571 C377.34144,109.239706 377.698218,109.643642 378.170421,109.851159 C378.642625,110.058675 379.182493,110.048781 379.646723,109.824104 L379.646723,109.824104 Z" id="_Контур_30-Copy" transform="translate(392.500000, 76.000000) rotate(-27.000000) translate(-392.500000, -76.000000) "></path>
                        <path d="M575.249173,102.041928 C570.370771,99.3618271 555.854551,92.1886161 540.723572,93.0754141 C524.343247,94.0213321 512.682676,106.574451 509.331254,110.614309 C509.069827,110.938351 508.955544,111.355718 509.015703,111.766716 C509.075861,112.177713 509.305059,112.545433 509.648548,112.782038 C519.14755,119.24581 531.581526,122.950656 542.528184,121.787965 C557.16339,120.231142 571.124346,108.446581 575.526806,104.387016 C575.87267,104.070383 576.044881,103.608214 575.989935,103.144099 C575.934989,102.679984 575.659542,102.27015 575.249173,102.041928 Z" id="_Контур_35-Copy"></path>
                        <path d="M428.683741,39.5753851 C417.694266,52.3138142 418.801119,70.0800475 419.275485,74.9289971 C419.308982,75.2581565 419.477009,75.5585207 419.739377,75.7582513 C420.001745,75.9579819 420.334861,76.0391174 420.659052,75.9822526 C432.23061,73.8209984 442.704097,67.7063161 450.306916,58.6730923 C459.636111,46.7494458 460.84179,27.7113568 460.999912,22.1668612 C461.004299,21.8096824 460.843731,21.4706427 460.56518,21.2489239 C460.286629,21.027205 459.921577,20.9478654 459.576815,21.0341148 C454.635504,22.4252069 438.862841,27.7709751 428.683741,39.5753851 Z" id="_Контур_36-Copy"></path>
                        <path d="M529.142855,77.28762 C529.175327,77.7999937 529.42063,78.2750459 529.818818,78.5966832 C530.217005,78.9183204 530.731391,79.0569104 531.236271,78.9785843 C543.992412,76.7370734 556.924635,69.9338913 564.867876,60.299327 C575.432778,47.4991201 577.565323,26.8732875 577.995745,19.9128063 C578.035611,19.3337677 577.793525,18.77127 577.346362,18.403937 C576.899199,18.036604 576.302524,17.9100799 575.745812,18.064543 C569.524259,19.7751697 552.268252,25.437934 540.881635,38.0415172 C528.458093,51.7068686 528.712433,71.0939715 529.142855,77.28762 Z" id="_Контур_39-Copy"></path>
                        <path d="M561.163848,84.1900243 C560.974607,84.5431998 560.947977,84.9605693 561.090811,85.3347405 C561.233644,85.7089116 561.531994,86.0033495 561.909092,86.142293 C571.396857,89.7098176 581.82419,89.9440048 591.463928,86.8060643 C603.427067,82.4525051 612.762237,69.7237133 615.762828,65.3311088 C616.012962,64.9644908 616.068971,64.4998902 615.913078,64.0847678 C615.757184,63.6696454 615.408748,63.355553 614.97836,63.2421813 C610.173493,61.9732066 596.582583,59.0643263 584.089928,62.949341 C570.557853,67.0881506 563.2623,79.9340785 561.163848,84.1900243 Z" id="_Контур_40-Copy"></path>
                        <path d="M516.365363,31.0519906 C508.750479,32.7624671 487.690566,38.5623585 473.174693,52.9146321 C457.449165,68.485866 456.794761,91.4888251 457.032726,98.8615684 C457.045222,99.4771794 457.319442,100.05891 457.787767,100.463314 C458.256091,100.867717 458.874935,101.057156 459.491699,100.984919 C475.038753,99.0188536 491.022077,91.606789 501.135595,80.5968257 C514.540964,65.9693029 518.150101,41.668741 518.982979,33.4112685 C519.071109,32.7186724 518.813456,32.0269243 518.292454,31.557341 C517.771452,31.0877576 517.052404,30.8991984 516.365363,31.0519906 Z" id="_Контур_41-Copy"></path>
                        <path d="M205.934293,117.871399 C206.287355,118.033835 206.692646,118.042769 207.052623,117.896052 C207.412599,117.749335 207.69466,117.460253 207.830922,117.098382 C209.827373,111.766542 216.31584,91.9455777 207.471561,74.3049193 C199.266146,57.8733398 182.755493,47.2294819 177.56472,44.1770534 C177.191233,43.9655594 176.738912,43.9422225 176.345356,44.1141419 C175.9518,44.2860613 175.66354,44.6329111 175.568268,45.0491758 C174.110859,51.3720635 169.878382,73.2940502 177.065607,89.52742 C182.316274,101.479462 193.596224,112.063857 205.934293,117.871399 Z" id="_Контур_44-Copy"></path>
                        <path d="M85.5364916,73.702391 C94.6284636,74.8268138 103.82602,72.7442361 111.570666,67.8075435 C111.789421,67.6689014 111.940092,67.4435694 111.985632,67.1869495 C112.031171,66.9303297 111.967357,66.6662265 111.809877,66.4595749 C109.557303,63.401497 100.826087,52.6378675 87.888737,51.2094232 C75.928167,49.8815736 63.9675969,55.2332099 60.4990316,57.0036761 C60.2407219,57.1327526 60.059602,57.3792409 60.0122162,57.6661892 C59.9648304,57.9531375 60.0569516,58.2455878 60.2598202,58.4522393 C63.2499627,61.5505551 73.9347386,71.8313302 85.5364916,73.702391 Z" id="_Контур_46-Copy" transform="translate(86.000000, 62.500000) rotate(-315.000000) translate(-86.000000, -62.500000) "></path>
                        <path d="M127.401041,66.2675909 C137.00621,72.3486759 148.405312,74.9647243 159.704812,73.6811775 C160.109594,73.6390436 160.477818,73.4283754 160.718977,73.1009536 C160.960136,72.7735319 161.051869,72.3597182 160.971627,71.9612254 C159.94234,66.9002169 155.706429,50.6694046 142.088172,42.3068789 C129.538791,34.5176706 113.802579,33.9443532 108.438411,34.0036619 C107.958394,33.9992083 107.508383,34.2364085 107.241187,34.6347173 C106.97399,35.0330261 106.925512,35.5389214 107.112214,35.9806184 C108.972848,41.4567877 115.524655,58.1225304 127.401041,66.2675909 Z" id="_Контур_47-Copy"></path>
                        <path d="M59.7138411,88.9710049 C60.1142792,89.0515828 60.5302445,88.9625095 60.862389,88.7250588 C61.1945335,88.4876081 61.4130349,88.1231002 61.4657069,87.7185931 C62.2421019,81.7547272 64.0138753,59.887219 50.6957137,43.8245402 C38.3331153,28.9745142 18.8436083,21.957032 12.8713385,20.0684744 C12.433851,19.9282713 11.9555733,20.0060008 11.585184,20.2774997 C11.2147948,20.5489986 10.9971946,20.9813543 11.0000273,21.4401636 C11.0000273,28.2787298 12.0352207,51.836 23.3228106,66.8053034 C31.5844505,77.8384553 45.6790071,85.989072 59.7138411,88.9710049 Z" id="_Контур_48-Copy"></path>
                        <path d="M647.28245,65.3024107 C647.620074,65.3701429 647.97079,65.2952696 648.250833,65.0956734 C648.530877,64.8960772 648.715104,64.5896792 648.759513,64.2496588 C649.414121,59.2365541 650.907969,40.8551704 639.678931,27.3532085 C629.255563,14.8705779 612.823234,8.97182478 607.787791,7.38434164 C607.418929,7.26648973 607.015675,7.33182755 606.703386,7.560044 C606.391097,7.78826045 606.20763,8.15168988 606.210019,8.53735571 C606.210019,14.2857157 607.082829,34.0874791 616.599816,46.6703718 C623.565513,55.9446154 635.449159,62.7958584 647.28245,65.3024107 Z" id="_Контур_48-Copy-2" transform="translate(627.709996, 36.326783) rotate(-33.000000) translate(-627.709996, -36.326783) "></path>
                    </g>
                    <g id="top" transform="translate(9.000000, 0.000000)">
                        <path d="M336.44218,130.349967 C330.937836,133.874996 317.516011,143.53912 310.795127,157.599628 C303.456002,172.947365 308.641253,189.819975 310.795127,195.662017 C311.007302,196.214098 311.446006,196.650464 312.001624,196.862084 C312.557241,197.073704 313.17729,197.04059 313.706845,196.771015 C324.496158,191.206222 334.168647,181.621312 338.675827,171.026423 C344.559093,157.025325 341.168737,138.647647 339.553331,131.736214 C339.467401,131.049375 339.026596,130.456917 338.390679,130.173569 C337.754762,129.890221 337.016012,129.9571 336.44218,130.349967 Z" id="_Контур_6"></path>
                        <path d="M388.458305,170.899708 C388.83909,171.045827 389.262463,171.031798 389.632819,170.860788 C390.003174,170.689778 390.289279,170.376209 390.426527,169.990891 C395.189624,155.805442 395.366764,138.814515 389.895107,125.458855 C382.474911,107.341785 361.926676,93.8478273 355.805507,90.2125591 C355.395465,89.966631 354.893074,89.9320595 354.453435,90.1195176 C354.013795,90.3069757 353.689778,90.6939196 353.581416,91.1608899 C352.085568,97.6016369 348.031031,118.820539 354.762349,137.806913 C362.123498,158.334324 382.73078,168.430096 388.458305,170.899708 Z" id="_Контур_7"></path>
                        <path d="M447.638152,49.8815789 C450.045509,30.3223684 439.652772,11 439.652772,11 C439.652772,11 420.785356,27.6381579 417.595119,46.2894737 C415.540058,58.3092105 418.945587,72.3815789 425.678358,83 C425.678358,82.9013158 445.093791,70.4868421 447.638152,49.8815789 Z" id="_Контур_8"></path>
                        <path d="M386.602882,43.1262852 C389.244208,21.9345278 377.844803,1 377.844803,1 C377.844803,1 357.151111,19.0852159 353.655823,39.2282682 C351.391829,52.2678276 355.145292,67.5037316 362.5132,78.9999137 C362.473481,79.0394875 383.82254,65.4656821 386.602882,43.1262852 Z" id="_Контур_9"></path>
                        <path d="M68.2712479,216.259387 C67.9835031,216.676002 67.920473,217.204562 68.1023901,217.6754 C68.2843073,218.146238 68.6882816,218.50011 69.1846382,218.623423 C74.7046926,220.010585 90.1330462,223.195196 101.967407,218.623423 C111.330267,214.604165 119.030495,207.5786 123.809349,198.695182 C124.023258,198.305265 124.058916,197.844337 123.907455,197.427054 C123.755993,197.009771 123.431647,196.675352 123.015097,196.506983 C118.36872,194.650921 104.310452,190.040073 91.2449996,195.803633 C79.4503509,201.059218 71.1901256,211.961139 68.2712479,216.259387 Z" id="_Контур_10"></path>
                        <path d="M1.20853091,203.033912 C7.50946583,206.621958 26.806079,216.070477 46.4965006,210.030601 C64.5132364,204.489064 78.4146741,189.977414 83.4160411,184.11694 C83.9134776,183.559364 84.109445,182.790412 83.940557,182.058804 C83.7716689,181.327195 83.2593655,180.725807 82.569353,180.44916 C74.8507077,177.359454 53.3684578,169.88436 35.4698645,174.429217 C21.9622353,177.877728 8.86810492,187.744852 0.401223627,199.68507 C0.0332627092,200.227517 -0.0889732204,200.90298 0.0651364967,201.542253 C0.219246214,202.181525 0.635102303,202.724046 1.20853091,203.033912 Z" id="_Контур_11"></path>
                        <path d="M208.839688,226.536867 C209.386558,226.243892 209.784521,225.730812 209.934718,225.125084 C210.084915,224.519356 209.973252,223.877822 209.627467,223.359849 C205.688575,217.56179 193.30076,201.180289 173.921412,197.824563 C156.196399,194.746826 138.116885,201.081007 131.38138,203.781473 C130.718467,204.041331 130.224296,204.61271 130.0592,205.310226 C129.894105,206.007743 130.079118,206.742532 130.554213,207.276193 C135.773245,213.233102 150.937978,228.9792 168.131241,232.811479 C181.149279,235.770077 196.609429,233.029899 208.839688,226.536867 Z" id="_Контур_12"></path>
                        <path d="M135.458382,153.266483 C119.565791,151.594891 103.871858,158.221556 98.0710625,161.067242 C97.5197155,161.354046 97.1340564,161.882707 97.0287621,162.496027 C96.9234678,163.109347 97.110664,163.736694 97.5346875,164.191525 C102.501122,169.126699 116.883917,182.101431 132.339461,184.509318 C144.060246,186.320209 157.549083,182.996926 168.09779,176.54936 C168.5555,176.250665 168.870226,175.776347 168.967946,175.237964 C169.065666,174.69958 168.937756,174.144645 168.614299,173.703675 C164.859674,168.828201 152.840903,155.097273 135.458382,153.266483 Z" id="_Контур_13"></path>
                        <path d="M390.210129,222.869271 C402.509651,218.661288 414.271816,209.988499 420.680305,199.340132 C429.138714,185.293769 428.26302,165.04409 427.60625,157.852985 C427.564693,157.18951 427.189775,156.591264 426.608577,156.261025 C426.027378,155.930785 425.317831,155.912834 424.720439,156.213255 C418.510972,159.018576 402.629064,167.197471 393.275059,181.16481 C383.085163,196.39652 386.13019,215.204026 387.563144,221.486366 C387.697069,222.039143 388.064414,222.507851 388.571251,222.772645 C389.078087,223.03744 389.675279,223.072649 390.210129,222.869271 L390.210129,222.869271 Z" id="_Контур_14"></path>
                        <path d="M282.931966,168.791518 C283.23772,168.992635 283.614557,169.051686 283.966528,168.953637 C284.3185,168.855587 284.611645,168.609898 284.771324,168.279125 C289.284868,158.235476 290.217954,146.930608 287.412955,136.274236 C283.499427,122.656393 270.036893,110.891049 265.614607,107.284587 C265.305217,107.029986 264.893777,106.939344 264.507099,107.040599 C264.120422,107.141853 263.804922,107.42285 263.657843,107.79698 C262.033729,112.605597 257.88539,127.14969 261.329294,141.299634 C265.00801,156.67144 278.705356,166.170428 282.931966,168.791518 Z" id="_Контур_15"></path>
                        <path d="M234.130257,149.564957 C244.483201,139.662533 251.081014,126.518818 252.811507,112.349436 C254.542358,94.0379779 243.878726,73.395611 240.218076,66.9164757 C239.974421,66.4241605 239.498941,66.0854486 238.951178,66.0139911 C238.403415,65.9425337 237.855952,66.1477993 237.492484,66.5609134 C233.195199,71.5585391 221.079245,87.0650061 218.433232,105.791287 C215.568376,126.078092 227.704225,144.132755 231.603613,149.248902 C231.871952,149.656287 232.306922,149.926131 232.793335,149.986976 C233.279748,150.047821 233.768535,149.893528 234.130257,149.564957 L234.130257,149.564957 Z" id="_Контур_16"></path>
                        <path d="M233.115279,51.8961445 C241.535842,47.4221224 248.162472,40.1947169 251.886058,31.4235913 C256.196675,20.1695587 252.787368,5.50995801 251.513777,0.851767133 C251.422223,0.497073322 251.164957,0.208303725 250.822903,0.0762915087 C250.480849,-0.0557207075 250.096045,-0.0147518263 249.78953,0.186311293 C246.164693,2.65241235 235.427338,10.5008768 230.489722,21.8723428 C225.081857,34.1832758 229.921504,47.4532482 231.58697,51.3285498 C231.853337,51.9055151 232.536273,52.1591491 233.115279,51.8961445 L233.115279,51.8961445 Z" id="_Контур_17"></path>
                        <path d="M283.929076,109.598438 C284.211632,109.872341 284.593789,110.017009 284.985631,109.998404 C285.377473,109.979799 285.744404,109.799564 286.000092,109.500105 C296.960849,96.5201333 304.228945,78.6038396 303.99449,62.1822092 C303.681884,39.6639257 287.113752,16.5359769 282.50281,10.57699 C282.23772,10.2142156 281.817005,10 281.369612,10 C280.922219,10 280.501504,10.2142156 280.236414,10.57699 C276.328836,16.2999774 262.808615,37.2645977 262.027099,60.4908796 C261.206508,85.5854908 279.25952,104.996448 283.929076,109.598438 Z" id="_Контур_18"></path>
                        <path d="M450.555224,82.4967325 C464.335392,85.5226943 480.084155,84.0196022 492.033529,77.6314607 C507.900408,69.1073462 518.55051,49.3298184 521.818378,42.4670163 C522.079925,41.8984749 522.057957,41.2390723 521.759156,40.6893728 C521.460356,40.1396733 520.920043,39.7646554 520.302559,39.6783849 C513.333732,38.8279512 493.746207,37.4039692 476.993461,45.3347578 C458.882383,53.9379824 451.185175,73.5177349 449.098464,79.9454315 C448.924086,80.4783448 448.983173,81.060584 449.261012,81.5471777 C449.538851,82.0337714 450.0093,82.3789372 450.555224,82.4967325 L450.555224,82.4967325 Z" id="_Контур_27"></path>
                        <path d="M585.340344,147.408772 C588.395575,150.618543 597.365417,159.203712 608.744191,162.123443 C621.082621,165.294542 632.774752,159.010353 636.397942,156.76738 C636.699717,156.586155 636.910036,156.287631 636.977155,155.945257 C637.044274,155.602883 636.961961,155.248441 636.750469,154.969135 C631.22482,147.814538 623.388886,142.738824 614.541295,140.583176 C603.358369,138.26286 590.158207,143.483571 585.732041,145.45584 C585.365665,145.616877 585.101421,145.94367 585.023519,146.332076 C584.945617,146.720482 585.063777,147.122038 585.340344,147.408772 L585.340344,147.408772 Z" id="_Контур_28"></path>
                        <path d="M535.412196,180.97726 C521.154055,174.623098 505.779549,180.106285 500.961551,182.145159 C500.558585,182.307655 500.242986,182.635659 500.09352,183.047313 C499.944053,183.458967 499.974818,183.915438 500.178137,184.302803 C505.434114,194.232094 513.883523,202.052687 524.131029,206.47309 C537.194463,211.540584 554.155383,207.680579 559.874308,206.116782 C560.349018,205.991016 560.733494,205.639659 560.904953,205.174918 C561.076412,204.710177 561.013409,204.190178 560.736063,203.780984 C557.719918,199.247952 548.573556,186.83655 535.412196,180.97726 Z" id="_Контур_29"></path>
                        <path d="M312.799337,133.818931 C324.537712,128.490686 335.344154,118.705732 340.559006,107.49463 C347.558409,92.5795075 344.524673,72.296525 343.176347,65.4430953 C343.066733,64.8788051 342.691466,64.4019375 342.168436,64.1623024 C341.645406,63.9226673 341.038797,63.9496716 340.539178,64.2348317 C334.947588,67.443663 319.778911,77.149387 311.847577,92.1239327 C303.24208,108.366165 308.318134,126.886271 310.281139,132.709705 C310.43175,133.217344 310.798169,133.633161 311.283135,133.846781 C311.768101,134.060401 312.322561,134.050216 312.799337,133.818931 L312.799337,133.818931 Z" id="_Контур_30"></path>
                        <path d="M396.177228,110.686517 C396.368716,110.886657 396.634728,111 396.912959,111 C397.191191,111 397.457203,110.886657 397.648691,110.686517 C404.967413,103.727944 409.644307,94.4814584 410.891858,84.5040187 C412.025283,71.6296427 403.932236,57.4934595 401.426772,53.4714492 C401.259717,53.2006293 400.971346,53.0261495 400.652045,53.0026985 C400.332744,52.9792474 400.021592,53.1096953 399.816116,53.3531548 C396.952729,56.6653985 388.064296,67.8836527 386.254795,81.0734805 C384.365754,95.3082424 393.512687,107.492568 396.177228,110.686517 Z" id="_Контур_31"></path>
                        <path d="M491.936246,174.660548 C492.064047,174.274385 491.997392,173.850699 491.757089,173.52176 C491.516786,173.19282 491.132111,172.998702 490.723156,173.000007 C485.075326,173.000007 466.600559,173.711667 452.063363,182.884183 C436.392624,192.867202 431.977771,211.923895 431.023209,217.202045 C430.954438,217.560782 431.040064,217.931749 431.25928,218.224802 C431.478496,218.517855 431.811234,218.706166 432.176639,218.743977 C444.924029,219.969614 459.12315,216.767141 469.185833,209.729607 C482.828126,200.141956 490.047007,180.452676 491.936246,174.660548 Z" id="_Контур_32"></path>
                        <path d="M566.544205,183.641163 C565.875148,184.305537 565.815535,185.379477 566.40682,186.116209 C576.377031,199.329766 590.704303,209.968476 604.442782,213.062284 C623.068235,217.253896 643.499317,206.235945 649.308731,202.782856 C649.711497,202.47222 649.962194,201.999372 649.996069,201.486449 C650.029943,200.973525 649.843672,200.47083 649.485369,200.108208 C644.676901,194.718993 628.445869,177.852746 609.349382,172.463531 C588.761289,166.655155 571.176035,179.748952 566.544205,183.641163 Z" id="_Контур_34"></path>
                        <path d="M566.249173,151.041928 C561.370771,148.361827 546.854551,141.188616 531.723572,142.075414 C515.343247,143.021332 503.682676,155.574451 500.331254,159.614309 C500.069827,159.938351 499.955544,160.355718 500.015703,160.766716 C500.075861,161.177713 500.305059,161.545433 500.648548,161.782038 C510.14755,168.24581 522.581526,171.950656 533.528184,170.787965 C548.16339,169.231142 562.124346,157.446581 566.526806,153.387016 C566.87267,153.070383 567.044881,152.608214 566.989935,152.144099 C566.934989,151.679984 566.659542,151.27015 566.249173,151.041928 Z" id="_Контур_35"></path>
                        <path d="M416.683741,113.575385 C405.694266,126.313814 406.801119,144.080048 407.275485,148.928997 C407.308982,149.258156 407.477009,149.558521 407.739377,149.758251 C408.001745,149.957982 408.334861,150.039117 408.659052,149.982253 C420.23061,147.820998 430.704097,141.706316 438.306916,132.673092 C447.636111,120.749446 448.84179,101.711357 448.999912,96.1668612 C449.004299,95.8096824 448.843731,95.4706427 448.56518,95.2489239 C448.286629,95.027205 447.921577,94.9478654 447.576815,95.0341148 C442.635504,96.4252069 426.862841,101.770975 416.683741,113.575385 Z" id="_Контур_36"></path>
                        <path d="M331.289681,227.995849 C343.500197,226.545898 354.827779,220.912654 363.338728,212.057752 C374.081205,200.193165 377.212775,180.18156 377.985758,174.348137 C378.045316,173.970691 377.91585,173.58807 377.639179,173.323868 C377.362509,173.059666 376.973702,172.947371 376.598353,173.023258 C371.464956,174.150394 354.79628,178.540292 343.221361,190.207136 C330.695079,202.7836 329.961736,221.62852 330.001377,226.789616 C329.994585,227.12561 330.13093,227.448716 330.37655,227.678688 C330.622169,227.90866 330.954019,228.023922 331.289681,227.995849 L331.289681,227.995849 Z" id="_Контур_37"></path>
                        <path d="M172.488255,88.9977809 C172.891884,89.020229 173.286228,88.8715608 173.573943,88.5884743 C173.861658,88.3053879 174.015936,87.9142603 173.998695,87.5116398 C173.861383,82.6425724 172.527487,67.507399 161.660163,57.8279277 C151.636331,48.9110814 137.689278,45.8214723 132.647938,45.0197383 C132.197014,44.9437026 131.737069,45.0900247 131.413689,45.4123892 C131.090308,45.7347537 130.943525,46.193254 131.019801,46.6427608 C131.922142,52.0984628 135.237264,67.9571522 144.554916,77.1086524 C152.235095,84.1287195 162.090189,88.3232944 172.488255,88.9977809 L172.488255,88.9977809 Z" id="_Контур_38"></path>
                        <path d="M520.142855,126.28762 C520.175327,126.799994 520.42063,127.275046 520.818818,127.596683 C521.217005,127.91832 521.731391,128.05691 522.236271,127.978584 C534.992412,125.737073 547.924635,118.933891 555.867876,109.299327 C566.432778,96.4991201 568.565323,75.8732875 568.995745,68.9128063 C569.035611,68.3337677 568.793525,67.77127 568.346362,67.403937 C567.899199,67.036604 567.302524,66.9100799 566.745812,67.064543 C560.524259,68.7751697 543.268252,74.437934 531.881635,87.0415172 C519.458093,100.706869 519.712433,120.093971 520.142855,126.28762 Z" id="_Контур_39"></path>
                        <path d="M552.163848,133.190024 C551.974607,133.5432 551.947977,133.960569 552.090811,134.33474 C552.233644,134.708912 552.531994,135.003349 552.909092,135.142293 C562.396857,138.709818 572.82419,138.944005 582.463928,135.806064 C594.427067,131.452505 603.762237,118.723713 606.762828,114.331109 C607.012962,113.964491 607.068971,113.49989 606.913078,113.084768 C606.757184,112.669645 606.408748,112.355553 605.97836,112.242181 C601.173493,110.973207 587.582583,108.064326 575.089928,111.949341 C561.557853,116.088151 554.2623,128.934079 552.163848,133.190024 Z" id="_Контур_40"></path>
                        <path d="M507.365363,90.0519906 C499.750479,91.7624671 478.690566,97.5623585 464.174693,111.914632 C448.449165,127.485866 447.794761,150.488825 448.032726,157.861568 C448.045222,158.477179 448.319442,159.05891 448.787767,159.463314 C449.256091,159.867717 449.874935,160.057156 450.491699,159.984919 C466.038753,158.018854 482.022077,150.606789 492.135595,139.596826 C505.540964,124.969303 509.150101,100.668741 509.982979,92.4112685 C510.071109,91.7186724 509.813456,91.0269243 509.292454,90.557341 C508.771452,90.0877576 508.052404,89.8991984 507.365363,90.0519906 Z" id="_Контур_41"></path>
                        <path d="M197.884619,93.6098536 C201.874438,89.7599643 215.579466,74.9526979 214.980994,55.9006817 C214.422419,38.2701632 204.228431,22.3375445 200.916881,17.5399902 C200.669339,17.20087 200.272325,17 199.849605,17 C199.426884,17 199.02987,17.20087 198.782328,17.5399902 C194.932153,22.4954887 182.284426,40.0470351 182.005139,57.1642351 C181.805648,69.7800261 187.431293,83.5606554 195.969506,93.5901106 C196.218405,93.848415 196.562217,93.9962103 196.922852,93.9999281 C197.283488,94.003646 197.630336,93.8629707 197.884619,93.6098536 Z" id="_Контур_42"></path>
                        <path d="M316.715503,58.891128 C320.676916,56.910082 335.274725,49.1443817 339.929386,34.2271053 C344.227519,20.3597834 340.701861,5.36326517 339.434209,0.78704892 C339.342325,0.451682912 339.093199,0.181908765 338.766232,0.0637075041 C338.439264,-0.0544937563 338.075256,-0.00637219896 337.790222,0.192735121 C333.511896,3.00582043 319.112158,13.2280178 314.318847,26.4217841 C310.940135,36.8409627 311.261978,48.1073879 315.229972,58.3166246 C315.342536,58.596841 315.566328,58.8177645 315.847944,58.9266745 C316.129559,59.0355846 316.443737,59.0227118 316.715503,58.891128 L316.715503,58.891128 Z" id="_Контур_43"></path>
                        <path d="M196.934293,176.871399 C197.287355,177.033835 197.692646,177.042769 198.052623,176.896052 C198.412599,176.749335 198.69466,176.460253 198.830922,176.098382 C200.827373,170.766542 207.31584,150.945578 198.471561,133.304919 C190.266146,116.87334 173.755493,106.229482 168.56472,103.177053 C168.191233,102.965559 167.738912,102.942222 167.345356,103.114142 C166.9518,103.286061 166.66354,103.632911 166.568268,104.049176 C165.110859,110.372064 160.878382,132.29405 168.065607,148.52742 C173.316274,160.479462 184.596224,171.063857 196.934293,176.871399 Z" id="_Контур_44"></path>
                        <path d="M303.626123,226.997594 C303.97968,227.019232 304.326618,226.894207 304.586181,226.651622 C304.845743,226.409036 304.995286,226.070053 305,225.713577 C305,220.518249 304.097166,201.633329 290.790185,189.622835 C278.444918,178.481523 260.820037,174.90603 255.461916,174.017096 C255.071019,173.951757 254.672409,174.075893 254.386482,174.352007 C254.100555,174.628122 253.960838,175.02384 254.009532,175.419637 C254.814231,181.345867 258.307804,201.198738 269.710985,212.5771 C278.052381,220.952839 291.182721,226.167922 303.626123,226.997594 Z" id="_Контур_49"></path>
                        <path d="M213.672344,198.987182 C217.362017,211.185172 225.240176,221.735447 235.954425,228.826906 C236.253097,229.008496 236.618169,229.049559 236.9506,228.938954 C237.283031,228.82835 237.548353,228.577545 237.674586,228.254583 C240.014805,223.281296 247.67552,204.572263 241.874978,186.810522 C236.43447,170.292104 223.133227,158.569356 218.932835,155.234095 C218.613262,154.996758 218.193597,154.935292 217.81793,155.070802 C217.442263,155.206312 217.161734,155.520351 217.072661,155.905095 C215.112478,161.726998 209.111918,182.666116 213.672344,198.987182 Z" id="_Контур_45"></path>
                        <path d="M56.5364916,162.702391 C65.6284636,163.826814 74.8260196,161.744236 82.5706657,156.807543 C82.7894212,156.668901 82.9400916,156.443569 82.9856315,156.18695 C83.0311715,155.93033 82.9673566,155.666226 82.8098771,155.459575 C80.5573031,152.401497 71.8260869,141.637868 58.888737,140.209423 C46.928167,138.881574 34.9675969,144.23321 31.4990316,146.003676 C31.2407219,146.132753 31.059602,146.379241 31.0122162,146.666189 C30.9648304,146.953137 31.0569516,147.245588 31.2598202,147.452239 C34.2499627,150.550555 44.9347386,160.83133 56.5364916,162.702391 Z" id="_Контур_46"></path>
                        <path d="M78.401041,135.267591 C88.0062102,141.348676 99.4053122,143.964724 110.704812,142.681177 C111.109594,142.639044 111.477818,142.428375 111.718977,142.100954 C111.960136,141.773532 112.051869,141.359718 111.971627,140.961225 C110.94234,135.900217 106.706429,119.669405 93.0881722,111.306879 C80.5387905,103.517671 64.8025785,102.944353 59.4384106,103.003662 C58.9583939,102.999208 58.5083831,103.236408 58.2411867,103.634717 C57.9739902,104.033026 57.9255122,104.538921 58.1122141,104.980618 C59.972848,110.456788 66.5246545,127.12253 78.401041,135.267591 Z" id="_Контур_47"></path>
                        <path d="M150.713841,137.971005 C151.114279,138.051583 151.530244,137.962509 151.862389,137.725059 C152.194534,137.487608 152.413035,137.1231 152.465707,136.718593 C153.242102,130.754727 155.013875,108.887219 141.695714,92.8245402 C129.333115,77.9745142 109.843608,70.957032 103.871339,69.0684744 C103.433851,68.9282713 102.955573,69.0060008 102.585184,69.2774997 C102.214795,69.5489986 101.997195,69.9813543 102.000027,70.4401636 C102.000027,77.2787298 103.035221,100.836 114.322811,115.805303 C122.58445,126.838455 136.679007,134.989072 150.713841,137.971005 Z" id="_Контур_48"></path>
                    </g>
                </g>
                <text id="Кальянная-В-Центре-М" font-family="Helvetica" font-size="34" font-weight="normal" fill="#000000">
                    <tspan x="114" y="393">Кальянная В Центре Москвы</tspan>
                </text>
                <g id="logo_font" filter="url(#filter-1)" transform="translate(0.000000, 211.000000)" fill-rule="nonzero" fill="#00F7D8">
                    <path d="M563.130927,122 L563.822191,122 C572.057173,121.911517 579.864721,118.331 585.290883,112.154525 C586.305622,111.029492 587.261494,109.853037 588.154692,108.629845 C590.425988,117.293863 593.90206,122.098455 602.631739,121.921236 C610.630654,121.704636 618.155558,116.368388 617.997555,108.137571 C617.997555,108.137571 617.721049,106.168476 613.86972,107.093951 C610.018391,108.019425 608.300106,105.124856 607.826096,100.517173 C607.612673,98.3052106 607.513789,96.0837477 607.52984,93.861632 C607.52984,71.1776572 607.52984,48.4871187 607.52984,25.7900166 L607.52984,2.16087623 L606.384316,1.70798437 C601.112539,-0.424790437 595.241019,-0.56483456 589.872977,1.31416537 L587.167171,2.25933098 L587.167171,48.4346095 C582.290845,42.2793371 575.077867,38.4093104 567.239012,37.7424235 C558.665343,37.2842998 550.325589,40.6202462 544.447043,46.8593335 C529.199729,62.1592019 527.678948,94.5705062 541.444981,111.071523 C546.716548,117.708495 554.644646,121.703803 563.130927,122 Z M559.299348,57.8271928 C561.869699,54.655055 565.716984,52.7804633 569.806564,52.7075458 C573.952275,52.9168262 577.798578,54.9241209 580.333531,58.2013209 C589.872977,69.4645445 589.793975,89.9234419 580.155777,101.127593 C577.554577,104.747625 573.307888,106.828408 568.844156,106.670034 C564.380424,106.511661 560.292836,104.135178 557.956321,100.339955 C553.216223,93.9600867 552.426207,86.3396889 552.307705,79.7432206 C552.445957,69.8977454 554.598752,63.1240585 559.338849,57.8271928 L559.299348,57.8271928 Z" id="_Составной_контур_"></path>
                    <path d="M683.015157,100.646877 C683.015157,100.646877 666.729623,111.422228 648.983326,102.115341 C644.245716,99.6348273 641.659771,94.4356709 640.376668,88.9190088 C656.168701,90.4271611 665.347821,90.22872 677.290545,83.4023467 C685.513422,79.1428469 690.477231,70.4220451 689.963652,61.1372573 C689.880316,51.9191592 684.100632,43.7263673 675.474462,40.5986053 C660.057489,34.2683348 645.449859,36.3122779 633.270254,46.5518378 C622.511931,55.5610629 617.912502,68.3803568 619.215344,85.9027044 C620.794548,107.254965 636.5471,121.999137 657.649204,121.999137 L658.517766,121.999137 C670.985878,122.090224 682.393775,114.962278 687.831727,103.683025 C690.634813,99.2776333 687.535627,97.7099488 683.015157,100.646877 Z M646.239461,55.8587245 C649.922549,51.2200153 656.072107,49.3488418 661.695913,51.1556709 C665.805823,52.0683336 668.971509,55.3679951 669.73011,59.5298845 C670.476791,62.6350375 669.850533,65.913088 668.012726,68.5192656 C665.375266,72.0831708 661.357643,74.3549974 656.958303,74.7701597 C652.753674,75.3059506 643.298195,75.9012738 639.330446,74.9090684 C639.361247,67.9447781 641.804208,61.2087594 646.239461,55.8587245 Z" id="_Составной_контур_2"></path>
                    <path d="M86.6690249,110.995646 C91.3889551,107.398611 94.1122065,101.752117 93.9964532,95.8026755 L93.7797819,68.1071563 C93.7797819,68.1071563 89.8403043,68.1071563 82.6901525,68.1071563 C77.5890919,68.408856 73.5935514,72.6292229 73.5505646,77.761023 C73.7475384,85.040988 73.7278411,88.1468427 73.5505646,94.6750722 C73.5025949,95.9595849 72.9915948,97.1828488 72.1126553,98.1172296 C59.3829095,107.560729 41.5120358,105.296533 31.5163389,92.973776 C23.2040412,82.5681738 20.4464069,69.8678 22.7903961,52.9735333 C24.5237662,40.5501147 29.290534,31.588636 37.3664631,25.5747518 C44.5954044,20.1939081 52.6713334,19.6399977 61.3775789,23.5965005 C67.2867952,26.4253999 70.2020086,31.8853737 70.3595877,40.7875049 C70.161401,43.4374623 71.0920777,46.0474287 72.9202482,47.9685573 C74.9683399,49.5676008 77.594513,50.2215915 80.1491895,49.7687661 C86.7172999,49.5220452 91.8824627,44.0444127 91.7706483,37.4442601 C92.2827804,27.315613 87.9690525,19.1849999 78.9279515,13.2304633 C59.6442087,0.530089487 29.6844818,5.06028512 14.714467,22.9041125 C3.30967946,36.672742 -1.51618057,53.6263563 0.414163445,73.3495224 C1.69449366,86.425764 6.18549809,97.246799 13.7689924,105.535672 C23.8564956,116.23424 37.942848,122.20305 52.6122413,121.994724 C64.8335322,122.015255 76.7503592,118.166562 86.6690249,110.995646 Z" id="_Контур_2"></path>
                    <path d="M381.384267,102.918469 C381.36408,105.854895 381.707133,108.782355 382.405446,111.632754 C384.153233,118.322308 389.023472,121.994615 396.152087,121.994615 L396.446658,121.994615 C403.491752,122.181993 409.744945,117.461932 411.567963,110.580688 L412,108.992663 L410.468231,108.417004 C401.434725,104.982901 401.434725,104.982901 401.434725,94.9386448 C401.434725,91.4714577 401.434725,88.0042705 401.434725,84.5370833 C401.434725,76.8153135 401.434725,69.0935436 401.434725,61.3717738 C401.238344,47.4765581 394.522128,38.9607759 382.523274,37.2536494 C371.231391,35.6259241 359.919869,41.9184718 353.066187,53.6500039 L352.869806,54.0073094 C350.748896,41.6008669 347.410426,36.1420321 337.532482,37.1146972 C329.166669,37.8690089 323.609099,43.0697897 324.021498,49.6203913 L324.021498,50.9900626 L325.337248,51.2878172 C332.79971,52.9353928 333.40849,53.7492554 333.40849,61.967283 L333.40849,77.172619 C333.40849,89.539361 333.40849,101.906103 333.40849,114.272845 C333.40849,116.019672 334.900983,120.108836 337.336102,120.347039 C340.883667,120.622256 344.443438,120.701776 347.999568,120.585243 L351.789713,120.585243 L353.576776,120.585243 L353.576776,118.778865 C353.576776,114.927905 353.576776,111.196047 353.576776,107.563441 C353.576776,99.6233175 353.43931,92.0206495 353.733881,84.4973827 C354.185556,72.4482457 357.956063,63.1384512 365.241783,56.0121906 C367.772345,53.0622699 371.829796,51.9759358 375.473211,53.272848 C378.693853,54.4440162 380.422002,57.2429097 381.227162,62.3444389 C381.404839,63.7727811 381.46396,65.2136471 381.403905,66.6519557 L381.403905,79.2370511 C381.325353,87.0779228 381.305715,94.9981957 381.384267,102.918469 Z" id="_Контур_3"></path>
                    <path d="M462.075947,106.422264 C457.448408,109.365197 451.762221,110.195528 446.471117,108.700975 C439.593065,107.070518 437.406401,104.359638 437.406401,97.5235073 C437.48437,95.2793751 436.543927,93.118121 434.84204,91.6302907 C431.375494,89.398393 426.960147,89.1881176 423.292478,91.0802572 C419.461202,93.1577071 417.060341,97.1143988 417.010789,101.432674 C416.812001,107.149094 419.356483,111.608295 424.962294,115.438886 C431.46265,119.81951 440.984578,122 450.546264,122 C460.485646,122 470.56418,119.623069 477.263323,114.908496 C483.712043,110.700242 487.407547,103.41895 486.96416,95.7948304 C486.160022,88.2541746 481.293703,81.7321549 474.241751,78.7437906 C471.069837,77.333432 467.793569,76.1644864 464.44152,75.2471488 C462.453644,74.6774712 460.644676,74.1077936 458.776072,73.4398957 L454.661168,72.0255237 C450.550545,70.761154 446.559608,69.1441896 442.73391,67.1930861 C440.57014,66.0876025 438.986418,64.1223918 438.38046,61.790971 C437.883222,59.6309794 438.346383,57.3639715 439.652701,55.5638055 C442.753788,51.1438931 449.711356,49.2973519 455.834015,51.2814015 C461.101888,52.9707902 462.731946,55.5441614 462.811461,62.3017164 C462.718736,64.3395409 463.431602,66.3331304 464.799338,67.860984 C467.514425,69.9501427 471.085854,70.6091333 474.380902,69.628949 C477.860427,68.7231507 480.677557,66.2030174 481.934833,62.871394 C484.174283,56.0395487 481.572809,48.5675315 475.553749,44.5434906 C467.304062,38.650274 457.861649,37.9627321 450.566143,38.0413083 C442.271941,37.6501719 434.088102,40.04587 427.347746,44.8381514 C421.302511,48.8768794 417.757914,55.6824251 417.945091,62.8910381 C418.354374,69.968442 422.385887,76.3515882 428.639866,79.8242136 C432.155845,81.80607 435.86552,83.4316913 439.712337,84.6762952 C442.495364,85.6388539 445.318149,86.5031924 448.140933,87.3478867 C452.659881,88.6177036 457.100331,90.1459684 461.439827,91.9249516 C464.33494,92.9408346 466.408622,95.4757689 466.807093,98.486066 C466.832607,101.791457 465.013969,104.842106 462.075947,106.422264 L462.075947,106.422264 Z" id="_Контур_4"></path>
                    <path d="M149.347909,74.7800739 C150.454332,76.1502578 152.103834,76.9769877 153.870355,77.0467228 C158.615882,77.8793016 163.376902,75.6636426 165.771529,71.5082156 C167.975993,67.6487324 169.366274,63.3835247 169.857599,58.9726621 C170.553984,53.2642426 168.673219,47.5421398 164.720259,43.3426402 C160.382472,39.3137698 154.464398,37.4137437 148.574333,38.1589129 C138.121135,38.9867325 132.7061,46.3976886 128.739042,53.5327049 C128.481184,54.0057447 128.223325,54.4787845 127.985301,54.9518242 C126.51749,42.1994608 123.165326,37.5281932 112.890646,38.0800729 C104.599494,38.4742727 98.7877542,43.6185801 99.0059424,50.3199766 L99.0059424,51.7193859 L100.394413,51.9953257 C107.6938,53.453865 108.526882,54.4984944 108.526882,62.0868405 L108.526882,68.4137472 C108.526882,83.5115994 108.526882,99.1416213 108.328529,114.495703 C108.328529,118.693931 110.312058,120.88174 114.100598,121 C115.786598,121 117.452762,121 119.158597,121 L129.076242,121 L129.076242,116.033083 C129.076242,114.318313 129.076242,112.978034 129.076242,111.618045 C129.076242,108.425027 129.215089,105.232008 129.274595,102.03899 C129.393607,94.4506438 129.512619,86.6257778 130.286195,79.0177217 C131.238289,69.5372167 133.3805,60.1946815 140.422028,57.336733 C146.372615,54.8926942 149.923132,57.9674526 150.042144,61.6335107 C150.205631,64.4202774 149.883533,67.2141663 149.09005,69.8919965 C148.425407,71.4758746 148.520259,73.2739267 149.347909,74.7800739 L149.347909,74.7800739 Z" id="_Контур_5"></path>
                    <path d="M307.290545,84.4028177 C315.513422,80.1432746 320.477231,71.4223843 319.963652,62.1375023 C319.880316,52.9193107 314.100632,44.7264355 305.474462,41.5986418 C290.057489,35.268307 275.469599,37.3122709 263.270254,47.5519347 C252.511931,56.5612513 247.912502,69.3806753 249.215344,86.9032007 C250.794548,108.255678 266.5471,123 287.649204,123 L288.517766,123 C307.941967,122.186383 317.831727,104.683702 317.831727,104.683702 C320.654553,100.317954 317.535627,98.7304093 313.015157,101.687211 C313.015157,101.687211 296.729623,112.462672 278.983326,103.15569 C274.245716,100.675152 271.659771,95.4759425 270.376668,89.9592244 C286.168701,91.4277033 295.347821,91.2292603 307.290545,84.4028177 Z M269.330446,75.8896089 C269.361247,68.9252479 271.804208,62.1891608 276.239461,56.8390716 C279.922549,52.2003153 286.072107,50.3291228 291.695913,52.1359702 C295.805823,53.0486422 298.971509,56.3483372 299.73011,60.5102689 C300.476791,63.6154533 299.850533,66.8935372 298.012726,69.4997412 C295.370787,73.0685571 291.344999,75.3409662 286.938563,75.7506987 C282.714194,76.2864951 273.278454,76.8818244 269.310706,75.8896089 L269.330446,75.8896089 Z" id="_Составной_контур_3"></path>
                    <path d="M231.290545,83.4028177 C239.513422,79.1432746 244.477231,70.4223843 243.963652,61.1375023 C243.880316,51.9193107 238.100632,43.7264355 229.474462,40.5986418 C214.057489,34.268307 199.469599,36.3122709 187.270254,46.5519347 C176.511931,55.5612513 171.912502,68.3806753 173.215344,85.9032007 C174.794548,107.255678 190.5471,122 211.649204,122 L212.517766,122 C231.941967,121.186383 241.831727,103.683702 241.831727,103.683702 C244.654553,99.3179541 241.535627,97.7304093 237.015157,100.687211 C237.015157,100.687211 220.729623,111.462672 202.983326,102.15569 C198.245716,99.6751516 195.659771,94.4759425 194.376668,88.9592244 C210.188441,90.4277033 219.367561,90.2094159 231.290545,83.4028177 Z M193.330446,74.8896089 C193.361247,67.9252479 195.804208,61.1891608 200.239461,55.8390716 C203.922549,51.2003153 210.072107,49.3291228 215.695913,51.1359702 C219.805823,52.0486422 222.971509,55.3483372 223.73011,59.5102689 C224.476791,62.6154533 223.850533,65.8935372 222.012726,68.4997412 C219.370787,72.0685571 215.344999,74.3409662 210.938563,74.7506987 C206.733934,75.2864951 197.278454,75.921513 193.330446,74.8896089 L193.330446,74.8896089 Z" id="_Составной_контур_4"></path>
                    <path d="M498.009989,101.160207 C498.028249,103.859305 498.288982,106.551556 498.789153,109.20563 C499.666269,116.139532 505.805786,121.257141 512.91399,120.97942 L513.33354,120.97942 C520.759435,121.362489 527.356184,116.359136 528.856876,109.20563 C528.856876,109.20563 530.075567,105.575378 525.400586,106.733134 C520.725604,107.89089 519.207234,104.241015 518.547942,99.1586623 C518.376233,97.522649 518.316163,95.8771844 518.368135,94.2332934 L518.368135,93.0951604 C518.368135,82.6164872 518.368135,61.5414029 518.368135,46 C511.777954,47.9925817 504.903429,48.9268867 498.009989,48.7668407 C498.009989,60.5406308 498.009989,73.5114229 498.009989,80.1636143 C497.99667,87.1493964 497.99667,94.1482605 498.009989,101.160207 Z" id="_Контур_33"></path>
                    <path d="M538.42323,7.02148459 C533.911714,7.16140341 522.051744,8.18081191 512.812001,14.497147 C502.646313,21.3931457 499.67147,33.9658506 499.021339,38.2833454 C498.953302,38.668406 499.049637,39.0646659 499.286356,39.3734597 C499.523075,39.6822535 499.877906,39.8745272 500.262498,39.902406 C509.029206,40.5296745 517.746194,38.119548 524.987185,33.0663725 C533.773807,26.4502114 538.442931,13.5576921 539.920502,8.82044078 C540.082944,8.3635363 539.992731,7.85340962 539.68386,7.48230446 C539.374989,7.11119929 538.894409,6.93552473 538.42323,7.02148459 Z" id="_Контур_51"></path>
                </g>
            </g>
        </g>
    </g>
</svg>