<?xml version="1.0" encoding="UTF-8"?>
<svg width="739px" height="171px" viewBox="0 0 739 171" version="1.1" xmlns="http://www.w3.org/2000/svg" xmlns:xlink="http://www.w3.org/1999/xlink">
    <!-- Generator: Sketch 47.1 (45422) - http://www.bohemiancoding.com/sketch -->
    <title>logo_font</title>
    <desc>Created with Sketch.</desc>
    <defs>
        <filter x="-6.2%" y="-26.4%" width="112.3%" height="169.1%" filterUnits="objectBoundingBox" id="filter-1">
            <feOffset dx="0" dy="10" in="SourceAlpha" result="shadowOffsetOuter1"></feOffset>
            <feGaussianBlur stdDeviation="12.5" in="shadowOffsetOuter1" result="shadowBlurOuter1"></feGaussianBlur>
            <feColorMatrix values="0 0 0 0 0   0 0 0 0 0   0 0 0 0 0  0 0 0 0.05 0" type="matrix" in="shadowBlurOuter1" result="shadowMatrixOuter1"></feColorMatrix>
            <feMerge>
                <feMergeNode in="shadowMatrixOuter1"></feMergeNode>
                <feMergeNode in="SourceGraphic"></feMergeNode>
            </feMerge>
        </filter>
    </defs>
    <g id="main" stroke="none" stroke-width="1" fill="none" fill-rule="evenodd">
        <g id="main-copy" transform="translate(-298.000000, -275.000000)" fill-rule="nonzero" fill="#00F7D8">
            <g id="Group-2" transform="translate(323.000000, 78.000000)">
                <g id="logo_font" filter="url(#filter-1)" transform="translate(0.000000, 211.000000)">
                    <path d="M563.130927,122 L563.822191,122 C572.057173,121.911517 579.864721,118.331 585.290883,112.154525 C586.305622,111.029492 587.261494,109.853037 588.154692,108.629845 C590.425988,117.293863 593.90206,122.098455 602.631739,121.921236 C610.630654,121.704636 618.155558,116.368388 617.997555,108.137571 C617.997555,108.137571 617.721049,106.168476 613.86972,107.093951 C610.018391,108.019425 608.300106,105.124856 607.826096,100.517173 C607.612673,98.3052106 607.513789,96.0837477 607.52984,93.861632 C607.52984,71.1776572 607.52984,48.4871187 607.52984,25.7900166 L607.52984,2.16087623 L606.384316,1.70798437 C601.112539,-0.424790437 595.241019,-0.56483456 589.872977,1.31416537 L587.167171,2.25933098 L587.167171,48.4346095 C582.290845,42.2793371 575.077867,38.4093104 567.239012,37.7424235 C558.665343,37.2842998 550.325589,40.6202462 544.447043,46.8593335 C529.199729,62.1592019 527.678948,94.5705062 541.444981,111.071523 C546.716548,117.708495 554.644646,121.703803 563.130927,122 Z M559.299348,57.8271928 C561.869699,54.655055 565.716984,52.7804633 569.806564,52.7075458 C573.952275,52.9168262 577.798578,54.9241209 580.333531,58.2013209 C589.872977,69.4645445 589.793975,89.9234419 580.155777,101.127593 C577.554577,104.747625 573.307888,106.828408 568.844156,106.670034 C564.380424,106.511661 560.292836,104.135178 557.956321,100.339955 C553.216223,93.9600867 552.426207,86.3396889 552.307705,79.7432206 C552.445957,69.8977454 554.598752,63.1240585 559.338849,57.8271928 L559.299348,57.8271928 Z" id="_Составной_контур_"></path>
                    <path d="M683.015157,100.646877 C683.015157,100.646877 666.729623,111.422228 648.983326,102.115341 C644.245716,99.6348273 641.659771,94.4356709 640.376668,88.9190088 C656.168701,90.4271611 665.347821,90.22872 677.290545,83.4023467 C685.513422,79.1428469 690.477231,70.4220451 689.963652,61.1372573 C689.880316,51.9191592 684.100632,43.7263673 675.474462,40.5986053 C660.057489,34.2683348 645.449859,36.3122779 633.270254,46.5518378 C622.511931,55.5610629 617.912502,68.3803568 619.215344,85.9027044 C620.794548,107.254965 636.5471,121.999137 657.649204,121.999137 L658.517766,121.999137 C670.985878,122.090224 682.393775,114.962278 687.831727,103.683025 C690.634813,99.2776333 687.535627,97.7099488 683.015157,100.646877 Z M646.239461,55.8587245 C649.922549,51.2200153 656.072107,49.3488418 661.695913,51.1556709 C665.805823,52.0683336 668.971509,55.3679951 669.73011,59.5298845 C670.476791,62.6350375 669.850533,65.913088 668.012726,68.5192656 C665.375266,72.0831708 661.357643,74.3549974 656.958303,74.7701597 C652.753674,75.3059506 643.298195,75.9012738 639.330446,74.9090684 C639.361247,67.9447781 641.804208,61.2087594 646.239461,55.8587245 Z" id="_Составной_контур_2"></path>
                    <path d="M86.6690249,110.995646 C91.3889551,107.398611 94.1122065,101.752117 93.9964532,95.8026755 L93.7797819,68.1071563 C93.7797819,68.1071563 89.8403043,68.1071563 82.6901525,68.1071563 C77.5890919,68.408856 73.5935514,72.6292229 73.5505646,77.761023 C73.7475384,85.040988 73.7278411,88.1468427 73.5505646,94.6750722 C73.5025949,95.9595849 72.9915948,97.1828488 72.1126553,98.1172296 C59.3829095,107.560729 41.5120358,105.296533 31.5163389,92.973776 C23.2040412,82.5681738 20.4464069,69.8678 22.7903961,52.9735333 C24.5237662,40.5501147 29.290534,31.588636 37.3664631,25.5747518 C44.5954044,20.1939081 52.6713334,19.6399977 61.3775789,23.5965005 C67.2867952,26.4253999 70.2020086,31.8853737 70.3595877,40.7875049 C70.161401,43.4374623 71.0920777,46.0474287 72.9202482,47.9685573 C74.9683399,49.5676008 77.594513,50.2215915 80.1491895,49.7687661 C86.7172999,49.5220452 91.8824627,44.0444127 91.7706483,37.4442601 C92.2827804,27.315613 87.9690525,19.1849999 78.9279515,13.2304633 C59.6442087,0.530089487 29.6844818,5.06028512 14.714467,22.9041125 C3.30967946,36.672742 -1.51618057,53.6263563 0.414163445,73.3495224 C1.69449366,86.425764 6.18549809,97.246799 13.7689924,105.535672 C23.8564956,116.23424 37.942848,122.20305 52.6122413,121.994724 C64.8335322,122.015255 76.7503592,118.166562 86.6690249,110.995646 Z" id="_Контур_2"></path>
                    <path d="M381.384267,102.918469 C381.36408,105.854895 381.707133,108.782355 382.405446,111.632754 C384.153233,118.322308 389.023472,121.994615 396.152087,121.994615 L396.446658,121.994615 C403.491752,122.181993 409.744945,117.461932 411.567963,110.580688 L412,108.992663 L410.468231,108.417004 C401.434725,104.982901 401.434725,104.982901 401.434725,94.9386448 C401.434725,91.4714577 401.434725,88.0042705 401.434725,84.5370833 C401.434725,76.8153135 401.434725,69.0935436 401.434725,61.3717738 C401.238344,47.4765581 394.522128,38.9607759 382.523274,37.2536494 C371.231391,35.6259241 359.919869,41.9184718 353.066187,53.6500039 L352.869806,54.0073094 C350.748896,41.6008669 347.410426,36.1420321 337.532482,37.1146972 C329.166669,37.8690089 323.609099,43.0697897 324.021498,49.6203913 L324.021498,50.9900626 L325.337248,51.2878172 C332.79971,52.9353928 333.40849,53.7492554 333.40849,61.967283 L333.40849,77.172619 C333.40849,89.539361 333.40849,101.906103 333.40849,114.272845 C333.40849,116.019672 334.900983,120.108836 337.336102,120.347039 C340.883667,120.622256 344.443438,120.701776 347.999568,120.585243 L351.789713,120.585243 L353.576776,120.585243 L353.576776,118.778865 C353.576776,114.927905 353.576776,111.196047 353.576776,107.563441 C353.576776,99.6233175 353.43931,92.0206495 353.733881,84.4973827 C354.185556,72.4482457 357.956063,63.1384512 365.241783,56.0121906 C367.772345,53.0622699 371.829796,51.9759358 375.473211,53.272848 C378.693853,54.4440162 380.422002,57.2429097 381.227162,62.3444389 C381.404839,63.7727811 381.46396,65.2136471 381.403905,66.6519557 L381.403905,79.2370511 C381.325353,87.0779228 381.305715,94.9981957 381.384267,102.918469 Z" id="_Контур_3"></path>
                    <path d="M462.075947,106.422264 C457.448408,109.365197 451.762221,110.195528 446.471117,108.700975 C439.593065,107.070518 437.406401,104.359638 437.406401,97.5235073 C437.48437,95.2793751 436.543927,93.118121 434.84204,91.6302907 C431.375494,89.398393 426.960147,89.1881176 423.292478,91.0802572 C419.461202,93.1577071 417.060341,97.1143988 417.010789,101.432674 C416.812001,107.149094 419.356483,111.608295 424.962294,115.438886 C431.46265,119.81951 440.984578,122 450.546264,122 C460.485646,122 470.56418,119.623069 477.263323,114.908496 C483.712043,110.700242 487.407547,103.41895 486.96416,95.7948304 C486.160022,88.2541746 481.293703,81.7321549 474.241751,78.7437906 C471.069837,77.333432 467.793569,76.1644864 464.44152,75.2471488 C462.453644,74.6774712 460.644676,74.1077936 458.776072,73.4398957 L454.661168,72.0255237 C450.550545,70.761154 446.559608,69.1441896 442.73391,67.1930861 C440.57014,66.0876025 438.986418,64.1223918 438.38046,61.790971 C437.883222,59.6309794 438.346383,57.3639715 439.652701,55.5638055 C442.753788,51.1438931 449.711356,49.2973519 455.834015,51.2814015 C461.101888,52.9707902 462.731946,55.5441614 462.811461,62.3017164 C462.718736,64.3395409 463.431602,66.3331304 464.799338,67.860984 C467.514425,69.9501427 471.085854,70.6091333 474.380902,69.628949 C477.860427,68.7231507 480.677557,66.2030174 481.934833,62.871394 C484.174283,56.0395487 481.572809,48.5675315 475.553749,44.5434906 C467.304062,38.650274 457.861649,37.9627321 450.566143,38.0413083 C442.271941,37.6501719 434.088102,40.04587 427.347746,44.8381514 C421.302511,48.8768794 417.757914,55.6824251 417.945091,62.8910381 C418.354374,69.968442 422.385887,76.3515882 428.639866,79.8242136 C432.155845,81.80607 435.86552,83.4316913 439.712337,84.6762952 C442.495364,85.6388539 445.318149,86.5031924 448.140933,87.3478867 C452.659881,88.6177036 457.100331,90.1459684 461.439827,91.9249516 C464.33494,92.9408346 466.408622,95.4757689 466.807093,98.486066 C466.832607,101.791457 465.013969,104.842106 462.075947,106.422264 L462.075947,106.422264 Z" id="_Контур_4"></path>
                    <path d="M149.347909,74.7800739 C150.454332,76.1502578 152.103834,76.9769877 153.870355,77.0467228 C158.615882,77.8793016 163.376902,75.6636426 165.771529,71.5082156 C167.975993,67.6487324 169.366274,63.3835247 169.857599,58.9726621 C170.553984,53.2642426 168.673219,47.5421398 164.720259,43.3426402 C160.382472,39.3137698 154.464398,37.4137437 148.574333,38.1589129 C138.121135,38.9867325 132.7061,46.3976886 128.739042,53.5327049 C128.481184,54.0057447 128.223325,54.4787845 127.985301,54.9518242 C126.51749,42.1994608 123.165326,37.5281932 112.890646,38.0800729 C104.599494,38.4742727 98.7877542,43.6185801 99.0059424,50.3199766 L99.0059424,51.7193859 L100.394413,51.9953257 C107.6938,53.453865 108.526882,54.4984944 108.526882,62.0868405 L108.526882,68.4137472 C108.526882,83.5115994 108.526882,99.1416213 108.328529,114.495703 C108.328529,118.693931 110.312058,120.88174 114.100598,121 C115.786598,121 117.452762,121 119.158597,121 L129.076242,121 L129.076242,116.033083 C129.076242,114.318313 129.076242,112.978034 129.076242,111.618045 C129.076242,108.425027 129.215089,105.232008 129.274595,102.03899 C129.393607,94.4506438 129.512619,86.6257778 130.286195,79.0177217 C131.238289,69.5372167 133.3805,60.1946815 140.422028,57.336733 C146.372615,54.8926942 149.923132,57.9674526 150.042144,61.6335107 C150.205631,64.4202774 149.883533,67.2141663 149.09005,69.8919965 C148.425407,71.4758746 148.520259,73.2739267 149.347909,74.7800739 L149.347909,74.7800739 Z" id="_Контур_5"></path>
                    <path d="M307.290545,84.4028177 C315.513422,80.1432746 320.477231,71.4223843 319.963652,62.1375023 C319.880316,52.9193107 314.100632,44.7264355 305.474462,41.5986418 C290.057489,35.268307 275.469599,37.3122709 263.270254,47.5519347 C252.511931,56.5612513 247.912502,69.3806753 249.215344,86.9032007 C250.794548,108.255678 266.5471,123 287.649204,123 L288.517766,123 C307.941967,122.186383 317.831727,104.683702 317.831727,104.683702 C320.654553,100.317954 317.535627,98.7304093 313.015157,101.687211 C313.015157,101.687211 296.729623,112.462672 278.983326,103.15569 C274.245716,100.675152 271.659771,95.4759425 270.376668,89.9592244 C286.168701,91.4277033 295.347821,91.2292603 307.290545,84.4028177 Z M269.330446,75.8896089 C269.361247,68.9252479 271.804208,62.1891608 276.239461,56.8390716 C279.922549,52.2003153 286.072107,50.3291228 291.695913,52.1359702 C295.805823,53.0486422 298.971509,56.3483372 299.73011,60.5102689 C300.476791,63.6154533 299.850533,66.8935372 298.012726,69.4997412 C295.370787,73.0685571 291.344999,75.3409662 286.938563,75.7506987 C282.714194,76.2864951 273.278454,76.8818244 269.310706,75.8896089 L269.330446,75.8896089 Z" id="_Составной_контур_3"></path>
                    <path d="M231.290545,83.4028177 C239.513422,79.1432746 244.477231,70.4223843 243.963652,61.1375023 C243.880316,51.9193107 238.100632,43.7264355 229.474462,40.5986418 C214.057489,34.268307 199.469599,36.3122709 187.270254,46.5519347 C176.511931,55.5612513 171.912502,68.3806753 173.215344,85.9032007 C174.794548,107.255678 190.5471,122 211.649204,122 L212.517766,122 C231.941967,121.186383 241.831727,103.683702 241.831727,103.683702 C244.654553,99.3179541 241.535627,97.7304093 237.015157,100.687211 C237.015157,100.687211 220.729623,111.462672 202.983326,102.15569 C198.245716,99.6751516 195.659771,94.4759425 194.376668,88.9592244 C210.188441,90.4277033 219.367561,90.2094159 231.290545,83.4028177 Z M193.330446,74.8896089 C193.361247,67.9252479 195.804208,61.1891608 200.239461,55.8390716 C203.922549,51.2003153 210.072107,49.3291228 215.695913,51.1359702 C219.805823,52.0486422 222.971509,55.3483372 223.73011,59.5102689 C224.476791,62.6154533 223.850533,65.8935372 222.012726,68.4997412 C219.370787,72.0685571 215.344999,74.3409662 210.938563,74.7506987 C206.733934,75.2864951 197.278454,75.921513 193.330446,74.8896089 L193.330446,74.8896089 Z" id="_Составной_контур_4"></path>
                    <path d="M498.009989,101.160207 C498.028249,103.859305 498.288982,106.551556 498.789153,109.20563 C499.666269,116.139532 505.805786,121.257141 512.91399,120.97942 L513.33354,120.97942 C520.759435,121.362489 527.356184,116.359136 528.856876,109.20563 C528.856876,109.20563 530.075567,105.575378 525.400586,106.733134 C520.725604,107.89089 519.207234,104.241015 518.547942,99.1586623 C518.376233,97.522649 518.316163,95.8771844 518.368135,94.2332934 L518.368135,93.0951604 C518.368135,82.6164872 518.368135,61.5414029 518.368135,46 C511.777954,47.9925817 504.903429,48.9268867 498.009989,48.7668407 C498.009989,60.5406308 498.009989,73.5114229 498.009989,80.1636143 C497.99667,87.1493964 497.99667,94.1482605 498.009989,101.160207 Z" id="_Контур_33"></path>
                    <path d="M538.42323,7.02148459 C533.911714,7.16140341 522.051744,8.18081191 512.812001,14.497147 C502.646313,21.3931457 499.67147,33.9658506 499.021339,38.2833454 C498.953302,38.668406 499.049637,39.0646659 499.286356,39.3734597 C499.523075,39.6822535 499.877906,39.8745272 500.262498,39.902406 C509.029206,40.5296745 517.746194,38.119548 524.987185,33.0663725 C533.773807,26.4502114 538.442931,13.5576921 539.920502,8.82044078 C540.082944,8.3635363 539.992731,7.85340962 539.68386,7.48230446 C539.374989,7.11119929 538.894409,6.93552473 538.42323,7.02148459 Z" id="_Контур_51"></path>
                </g>
            </g>
        </g>
    </g>
</svg>