<?xml version="1.0" encoding="UTF-8"?>
<svg width="16px" height="16px" viewBox="0 0 16 16" version="1.1" xmlns="http://www.w3.org/2000/svg" xmlns:xlink="http://www.w3.org/1999/xlink">
    <!-- Generator: Sketch 47.1 (45422) - http://www.bohemiancoding.com/sketch -->
    <title>Shape</title>
    <desc>Created with Sketch.</desc>
    <defs></defs>
    <g id="main" stroke="none" stroke-width="1" fill="none" fill-rule="evenodd">
        <g transform="translate(-777.000000, -3927.000000)" id="Group-18" fill-rule="nonzero" fill="#000000">
            <g transform="translate(777.000000, 3898.000000)">
                <g id="phone_disconnected_filled" transform="translate(0.000000, 29.000000)">
                    <path d="M3.08354379,16 C2.8259629,16 2.5658222,15.9129583 2.33095962,15.748475 C2.30792133,15.7321546 -0.0279053681,14.0274805 0.000252542796,13.1148223 C0.0882460145,10.3816476 2.74596883,7.17166343 4.95988458,4.95849917 C7.1741203,2.74437489 10.3847621,0.0867217344 13.1064802,0 C13.1064802,0 13.1064802,0 13.1068002,0 C14.0507301,0 15.7347652,2.30660613 15.751084,2.3299666 C16.1616135,2.91845837 16.0192241,3.56967139 15.6509314,3.83527671 C15.3911107,4.02280046 12.6853914,5.80747615 12.3785342,6.00172003 C12.0771165,6.19340387 11.6118711,6.16108322 11.1562249,5.92043841 C10.8871248,5.77931559 10.0475071,5.30122602 9.68241421,5.09322186 C9.36403783,5.31338627 8.54169884,5.93067861 7.2374756,7.23534471 C5.92557294,8.54769095 5.31313837,9.36370727 5.09427461,9.68051361 C5.30257916,10.0456409 5.78094367,10.8859777 5.92237317,11.1554231 C6.16267535,11.6098322 6.194353,12.0648813 6.00620695,12.3724074 C5.81230134,12.6898538 4.01659457,15.3913478 3.83932772,15.6451129 C3.6831793,15.8675174 3.40096024,16 3.08354379,16 Z" id="Shape"></path>
                </g>
            </g>
        </g>
    </g>
</svg>