<?xml version="1.0" encoding="UTF-8"?>
<svg width="18px" height="18px" viewBox="0 0 18 18" version="1.1" xmlns="http://www.w3.org/2000/svg" xmlns:xlink="http://www.w3.org/1999/xlink">
    <!-- Generator: Sketch 47.1 (45422) - http://www.bohemiancoding.com/sketch -->
    <title>vk.com</title>
    <desc>Created with Sketch.</desc>
    <defs></defs>
    <g id="main" stroke="none" stroke-width="1" fill="none" fill-rule="evenodd">
        <g id="main-copy" transform="translate(-78.000000, -696.000000)" fill-rule="nonzero" fill="#000000">
            <g id="Group-5" transform="translate(78.000000, 663.000000)">
                <g id="Group-4" transform="translate(0.000000, 30.000000)">
                    <g id="vk.com" transform="translate(0.000000, 3.000000)">
                        <path d="M16.35,0 L1.65,0 C0.75,0 0,0.75 0,1.65 L0,16.35 C0,17.25 0.75,18 1.65,18 L16.35,18 C17.25,18 18,17.25 18,16.35 L18,1.65 C18,0.75 17.25,0 16.35,0 Z M14.325,10.575 C15.375,11.55 15.6,12.075 15.675,12.15 C16.125,12.9 15.15,12.975 15.15,12.975 L13.35,12.975 C13.35,12.975 12.975,13.05 12.45,12.675 C11.775,12.225 11.175,11.025 10.65,11.175 C10.125,11.325 10.2,12.45 10.2,12.45 C10.2,12.45 10.2,12.675 10.125,12.75 C9.975,12.9 9.75,12.9 9.75,12.9 L8.925,12.9 C8.925,12.9 7.125,13.05 5.55,11.4 C3.825,9.6 2.25,6.075 2.25,6.075 C2.25,6.075 2.175,5.85 2.25,5.775 C2.325,5.625 2.625,5.625 2.625,5.625 L4.575,5.625 C4.575,5.625 4.725,5.625 4.875,5.775 C4.95,5.85 5.025,6 5.025,6 C5.025,6 5.325,6.825 5.775,7.5 C6.6,8.925 6.975,9.225 7.2,9.075 C7.575,8.85 7.5,7.125 7.5,7.125 C7.5,7.125 7.5,6.525 7.275,6.225 C7.2,5.85 6.9,5.85 6.75,5.775 C6.675,5.775 6.825,5.475 7.05,5.4 C7.425,5.25 8.025,5.25 8.775,5.25 C9.375,5.25 9.525,5.325 9.75,5.325 C10.425,5.475 10.2,6.075 10.2,7.575 C10.2,8.025 10.125,8.7 10.425,8.925 C10.575,9 10.95,8.925 11.85,7.425 C12.3,6.675 12.6,5.85 12.6,5.85 C12.6,5.85 12.675,5.7 12.75,5.625 C12.825,5.55 12.975,5.55 12.975,5.55 L15,5.55 C15,5.55 15.6,5.475 15.675,5.775 C15.75,6.075 15.45,6.75 14.625,7.875 C13.275,9.675 13.125,9.525 14.325,10.575 Z" id="Shape"></path>
                    </g>
                </g>
            </g>
        </g>
    </g>
</svg>