<?xml version="1.0" encoding="UTF-8"?>
<svg width="24px" height="20px" viewBox="0 0 24 20" version="1.1" xmlns="http://www.w3.org/2000/svg" xmlns:xlink="http://www.w3.org/1999/xlink">
    <!-- Generator: Sketch 47.1 (45422) - http://www.bohemiancoding.com/sketch -->
    <title>twitter</title>
    <desc>Created with Sketch.</desc>
    <defs></defs>
    <g id="Web" stroke="none" stroke-width="1" fill="none" fill-rule="evenodd" opacity="0.5">
        <g id="main-v3" transform="translate(-296.000000, -5240.000000)" fill-rule="nonzero" fill="#000000">
            <g id="Group-24" transform="translate(0.000000, 5192.000000)">
                <g id="twitter" transform="translate(296.000000, 48.000000)">
                    <path d="M24,2.3 C23.1,2.7 22.2,3 21.2,3.1 C22.2,2.5 23,1.5 23.4,0.4 C22.4,1 21.4,1.4 20.3,1.6 C19.3,0.6 18,0 16.6,0 C13.9,0 11.7,2.2 11.7,4.9 C11.7,5.3 11.7,5.7 11.8,6 C7.7,5.8 4.1,3.9 1.7,0.9 C1.2,1.6 1,2.5 1,3.4 C1,5.1 1.9,6.6 3.2,7.5 C2.4,7.4 1.6,7.2 1,6.9 C1,6.9 1,6.9 1,7 C1,9.4 2.7,11.4 4.9,11.8 C4.5,11.9 4.1,12 3.6,12 C3.3,12 3,12 2.7,11.9 C3.3,13.9 5.1,15.3 7.3,15.3 C5.6,16.6 3.5,17.4 1.2,17.4 C0.8,17.4 0.4,17.4 1.77635684e-15,17.3 C2.2,18.7 4.8,19.5 7.5,19.5 C16.6,19.5 21.5,12 21.5,5.5 C21.5,5.3 21.5,5.1 21.5,4.9 C22.5,4.2 23.3,3.3 24,2.3" id="Shape"></path>
                </g>
            </g>
        </g>
    </g>
</svg>