<?xml version="1.0" encoding="UTF-8"?>
<svg width="18px" height="20px" viewBox="0 0 18 20" version="1.1" xmlns="http://www.w3.org/2000/svg" xmlns:xlink="http://www.w3.org/1999/xlink">
    <!-- Generator: Sketch 47.1 (45422) - http://www.bohemiancoding.com/sketch -->
    <title>youtube_copyrighted</title>
    <desc>Created with Sketch.</desc>
    <defs></defs>
    <g id="Web" stroke="none" stroke-width="1" fill="none" fill-rule="evenodd" opacity="0.5">
        <g id="main-v3" transform="translate(-372.000000, -5240.000000)" fill-rule="nonzero" fill="#000000">
            <g id="Group-24" transform="translate(0.000000, 5192.000000)">
                <g id="youtube_copyrighted" transform="translate(372.000000, 48.000000)">
                    <g id="Group" transform="translate(3.000000, 0.000000)">
                        <polygon id="Shape" points="0.677142857 0 1.87285714 0 2.64342857 2.8736 2.718 2.8736 3.45342857 0.0008 4.662 0.0008 3.27857143 4.2032 3.27857143 7.1856 2.09142857 7.1856 2.09142857 4.3392"></polygon>
                        <path d="M4.60885714,3.0968 C4.60885714,2.6864 4.75114286,2.3584 5.03571429,2.1168 C5.32028571,1.8736 5.70171429,1.7512 6.18085714,1.7512 C6.61971429,1.7512 6.97714286,1.8792 7.25485714,2.1368 C7.53342857,2.392 7.674,2.7232 7.674,3.1264 L7.674,5.8648 C7.674,6.3184 7.53685714,6.6744 7.26428571,6.9336 C6.98914286,7.1912 6.61457143,7.3208 6.13457143,7.3208 C5.67085714,7.3208 5.30314286,7.1864 5.02371429,6.92 C4.74685714,6.6544 4.60885714,6.296 4.60885714,5.8456 L4.60885714,3.0968 L4.60885714,3.0968 Z M5.69485714,5.9432 C5.69485714,6.088 5.73257143,6.2016 5.81057143,6.2816 C5.88428571,6.36 5.99228571,6.4008 6.13114286,6.4008 C6.27514286,6.4008 6.38657143,6.36 6.47228571,6.2784 C6.55628571,6.1992 6.59914286,6.0864 6.59914286,5.944 L6.59914286,3.0568 C6.59914286,2.9424 6.55542857,2.848 6.46971429,2.7768 C6.38485714,2.7064 6.27171429,2.6688 6.132,2.6688 C6.00257143,2.6688 5.89714286,2.7056 5.81657143,2.7768 C5.736,2.848 5.69571429,2.9424 5.69571429,3.0568 C5.69485714,3.0568 5.69485714,5.9432 5.69485714,5.9432 Z" id="Shape"></path>
                        <path d="M11.5842857,1.8856 L11.5842857,7.1856 L10.5282857,7.1856 L10.5282857,6.6 C10.3337143,6.816 10.1314286,6.9808 9.91971429,7.0928 C9.71057143,7.204 9.50571429,7.2624 9.30857143,7.2624 C9.06514286,7.2624 8.88085714,7.184 8.75657143,7.0264 C8.63228571,6.8688 8.57142857,6.6336 8.57142857,6.316 L8.57142857,1.8856 L9.62657143,1.8856 L9.62657143,5.9504 C9.62657143,6.0736 9.64885714,6.1648 9.69428571,6.2208 C9.73714286,6.276 9.81085714,6.3056 9.90857143,6.3056 C9.98657143,6.3056 10.0851429,6.2688 10.2025714,6.1944 C10.3217143,6.1208 10.4305714,6.024 10.5291429,5.9096 L10.5291429,1.8856 L11.5842857,1.8856 Z" id="Shape"></path>
                    </g>
                    <g id="Group" transform="translate(0.000000, 8.000000)">
                        <path d="M14.2002857,5.27485714 C14.0751429,5.27485714 13.9894286,5.30828571 13.938,5.37857143 C13.9011429,5.43 13.8565714,5.55085714 13.8565714,5.81228571 L13.8565714,6.25971429 L14.538,6.25971429 L14.538,5.81228571 C14.538,5.55514286 14.49,5.43342857 14.4505714,5.376 C14.4025714,5.30742857 14.3202857,5.27485714 14.2002857,5.27485714 Z" id="Shape"></path>
                        <path d="M10.2077143,5.29714286 C10.1588571,5.32114286 10.1108571,5.358 10.0602857,5.40942857 L10.0602857,8.79942857 C10.1228571,8.86285714 10.1845714,8.91 10.2411429,8.93914286 C10.3045714,8.97085714 10.3688571,8.98628571 10.4391429,8.98628571 C10.572,8.98628571 10.6122857,8.93314286 10.6251429,8.91514286 C10.6577143,8.874 10.6937143,8.78914286 10.6937143,8.60314286 L10.6937143,5.71457143 C10.6937143,5.55428571 10.6637143,5.43 10.6062857,5.35457143 C10.53,5.25085714 10.3791429,5.21142857 10.2077143,5.29714286 Z" id="Shape"></path>
                        <path d="M17.0271429,3.01971429 C17.0271429,1.66885714 15.9188571,0.573428571 14.5534286,0.573428571 C12.6034286,0.492 10.608,0.456857143 8.57057143,0.458571429 C6.53485714,0.456 4.53857143,0.491142857 2.58771429,0.573428571 C1.224,0.573428571 0.114857143,1.66971429 0.114857143,3.01971429 C0.0342857143,4.08771429 -0.00257142857,5.15828571 5.06051364e-17,6.22885714 C-0.00342857143,7.29771429 0.0334285714,8.36828571 0.115714286,9.43885714 C0.115714286,10.7914286 1.22314286,11.8868571 2.58771429,11.8868571 C4.53857143,11.9674286 6.53485714,12.0025714 8.57057143,11.9991429 C10.608,12.0034286 12.6034286,11.9674286 14.5534286,11.8868571 C15.918,11.8868571 17.0271429,10.7914286 17.0271429,9.43885714 C17.1085714,8.36828571 17.1462857,7.29771429 17.1428571,6.22885714 C17.1471429,5.15828571 17.1094286,4.08771429 17.0271429,3.01971429 Z M3.82885714,9.91114286 C3.82885714,9.97628571 3.77657143,10.0285714 3.71142857,10.0285714 L2.54057143,10.0285714 C2.47542857,10.0285714 2.42314286,9.97628571 2.42314286,9.91114286 L2.42314286,3.546 L1.32942857,3.546 C1.26428571,3.546 1.212,3.49371429 1.212,3.42857143 L1.212,2.33057143 C1.212,2.26542857 1.26428571,2.21314286 1.32942857,2.21314286 L4.92342857,2.21314286 C4.98857143,2.21314286 5.04085714,2.26542857 5.04085714,2.33057143 L5.04085714,3.42857143 C5.04085714,3.49371429 4.98857143,3.546 4.92342857,3.546 L3.82885714,3.546 L3.82885714,9.91114286 Z M7.99714286,9.91114286 C7.99714286,9.97628571 7.94485714,10.0285714 7.87971429,10.0285714 L6.83914286,10.0285714 C6.774,10.0285714 6.72171429,9.97628571 6.72171429,9.91114286 L6.72171429,9.59314286 C6.58285714,9.72771429 6.444,9.83485714 6.3,9.91628571 C6.07371429,10.0465714 5.85685714,10.11 5.63742857,10.11 C5.35885714,10.11 5.14371429,10.0097143 4.99971429,9.81171429 C4.86342857,9.624 4.79314286,9.348 4.79314286,8.99228571 L4.79314286,4.31742857 C4.79314286,4.25228571 4.84542857,4.2 4.91057143,4.2 L5.95114286,4.2 C6.01628571,4.2 6.06857143,4.25228571 6.06857143,4.31742857 L6.06857143,8.604 C6.06857143,8.74457143 6.09428571,8.802 6.11057143,8.82342857 C6.11742857,8.83285714 6.13885714,8.86285714 6.22714286,8.86285714 C6.25714286,8.86285714 6.32571429,8.85 6.44914286,8.766 C6.54942857,8.69828571 6.63942857,8.61685714 6.72,8.52085714 L6.72,4.31742857 C6.72,4.25228571 6.77228571,4.2 6.83742857,4.2 L7.878,4.2 C7.94314286,4.2 7.99542857,4.25228571 7.99542857,4.31742857 L7.99542857,9.91028571 L7.99714286,9.91028571 L7.99714286,9.91114286 Z M12,8.75314286 C12,9.17742857 11.9091429,9.50914286 11.7291429,9.73885714 C11.5431429,9.97885714 11.2748571,10.1005714 10.9302857,10.1005714 C10.7117143,10.1005714 10.5102857,10.0551429 10.3328571,9.966 C10.2377143,9.91714286 10.146,9.85457143 10.0594286,9.77742857 L10.0594286,9.912 C10.0594286,9.97714286 10.0071429,10.0294286 9.942,10.0294286 L8.892,10.0294286 C8.82685714,10.0294286 8.77457143,9.97714286 8.77457143,9.912 L8.77457143,2.32971429 C8.77457143,2.26457143 8.82685714,2.21228571 8.892,2.21228571 L9.942,2.21228571 C10.0071429,2.21228571 10.0594286,2.26457143 10.0594286,2.32971429 L10.0594286,4.47428571 C10.146,4.39542857 10.2368571,4.33028571 10.3302857,4.27628571 C10.5077143,4.17771429 10.6877143,4.128 10.8685714,4.128 C11.2354286,4.128 11.5208571,4.26514286 11.7171429,4.536 C11.9048571,4.79571429 11.9991429,5.17028571 11.9991429,5.65028571 L12,8.75314286 L12,8.75314286 Z M15.8442857,7.24714286 C15.8442857,7.31228571 15.792,7.36457143 15.7268571,7.36457143 L13.8565714,7.36457143 L13.8565714,8.30057143 C13.8565714,8.64257143 13.9028571,8.78742857 13.9405714,8.85 C13.9714286,8.90057143 14.028,8.96485714 14.1908571,8.96485714 C14.3228571,8.96485714 14.412,8.93314286 14.4582857,8.87057143 C14.4805714,8.838 14.538,8.70857143 14.538,8.30057143 L14.538,7.91057143 C14.538,7.84542857 14.5902857,7.79314286 14.6554286,7.79314286 L15.7251429,7.79314286 C15.7902857,7.79314286 15.8425714,7.84542857 15.8425714,7.91057143 L15.8425714,8.33142857 C15.8425714,8.934 15.6994286,9.396 15.4208571,9.70628571 C15.1405714,10.02 14.718,10.1802857 14.1651429,10.1802857 C13.6662857,10.1802857 13.266,10.0105714 12.9771429,9.67714286 C12.6917143,9.34885714 12.5468571,8.89542857 12.5468571,8.33057143 L12.5468571,5.82 C12.5468571,5.30571429 12.7062857,4.87971429 13.0208571,4.55228571 C13.3362857,4.224 13.7485714,4.05771429 14.2465714,4.05771429 C14.7548571,4.05771429 15.1534286,4.21285714 15.4302857,4.51971429 C15.7054286,4.82485714 15.8442857,5.26114286 15.8442857,5.81914286 L15.8442857,7.24714286 L15.8442857,7.24714286 Z" id="Shape"></path>
                    </g>
                </g>
            </g>
        </g>
    </g>
</svg>